<svg width="40" height="40" viewBox="0 0 40 40" fill="none" xmlns="http://www.w3.org/2000/svg">
<g clip-path="url(#clip0)">
<path d="M38.7097 38.5594H40V39.8498H38.7097V38.5594Z" fill="#C6F7E2"/>
<path d="M0 38.5594H1.29032V39.8498H0V38.5594Z" fill="#C6F7E2"/>
<path d="M32.8553 29.742C32.1639 27.7665 30.5188 26.3161 28.5465 25.8322L25.5743 15.6426C24.9175 13.3902 22.9413 11.7638 20.6452 11.5032V8.69169L30.7973 5.0658L19.3548 0.161255V11.5032C18.9652 11.5477 18.584 11.6289 18.2173 11.749C17.1116 10.9104 15.6401 10.6095 14.307 10.9734C13.3691 8.92638 11.3247 7.59164 9.03226 7.59164C5.83039 7.59164 3.22581 10.1962 3.22581 13.3981C3.22581 13.6315 3.24187 13.8637 3.26959 14.0949C1.42074 14.385 0 15.9844 0 17.9142C0 20.0491 1.73608 21.7852 3.87097 21.7852H12.6342L12.2581 23.0755C9.69411 23.0755 7.40203 24.7949 6.68441 27.2555L3.3871 38.5594H1.93548V39.8497H37.4194V38.5594H35.9419L32.8553 29.742ZM20.6452 2.11879L27.2672 4.95618L20.6452 7.32135V2.11879ZM21.6781 32.6754C22.047 33.0761 22.5425 33.3981 23.222 33.3981C24.5876 33.3981 25.224 32.127 25.7343 31.1057C26.2245 30.1238 26.5619 29.5271 27.0924 29.5271C27.6232 29.5271 27.9606 30.1238 28.4517 31.1057C28.9633 32.127 29.5987 33.3981 30.9659 33.3981C31.6479 33.3981 32.144 33.0749 32.5142 32.6729L34.5741 38.5594H19.6195L21.6781 32.6754ZM31.6375 30.1676L31.989 31.1728C31.6104 31.8463 31.3206 32.1078 30.9659 32.1078C30.4347 32.1078 30.0973 31.5108 29.6065 30.5289C29.0956 29.5076 28.4592 28.2368 27.0924 28.2368C25.7258 28.2368 25.0898 29.5076 24.5794 30.5289C24.089 31.5108 23.7522 32.1078 23.222 32.1078C22.8683 32.1078 22.58 31.8476 22.2026 31.1763L22.5554 30.1676C23.2302 28.2412 25.0554 26.9465 27.0968 26.9465C29.1381 26.9465 30.9633 28.2412 31.6375 30.1676ZM27.0968 25.6562C24.5076 25.6562 22.1935 27.298 21.3376 29.742L19.8214 34.0748L17.8323 27.2555C17.2388 25.2205 15.5677 23.6961 13.5575 23.2277L14.5691 19.7599C14.9446 20.1735 15.4426 20.4949 16.1253 20.4949C17.4909 20.4949 18.1272 19.2238 18.6375 18.2025C19.1277 17.2205 19.4651 16.6239 19.9956 16.6239C20.5264 16.6239 20.8638 17.2205 21.3549 18.2025C21.8665 19.2238 22.5019 20.4949 23.8691 20.4949C24.5536 20.4949 25.0529 20.171 25.4297 19.7568L27.151 25.6587C27.133 25.658 27.1147 25.6562 27.0968 25.6562ZM24.3356 16.0046L24.96 18.1451C24.542 18.9182 24.244 19.2045 23.8691 19.2045C23.338 19.2045 23.0006 18.6076 22.5098 17.6257C21.9988 16.6044 21.3625 15.3336 19.9956 15.3336C18.629 15.3336 17.993 16.6044 17.4827 17.6257C16.9922 18.6076 16.6554 19.2045 16.1253 19.2045C15.7516 19.2045 15.4549 18.9194 15.0387 18.1495L15.6644 16.0046C16.2232 14.0896 18.0059 12.7529 20 12.7529C21.9941 12.7529 23.7768 14.0896 24.3356 16.0046ZM3.87097 20.4949C2.44771 20.4949 1.29032 19.3375 1.29032 17.9142C1.29032 16.491 2.44771 15.3336 3.87097 15.3336C5.29423 15.3336 6.45161 16.491 6.45161 17.9142H7.74194C7.74194 16.0219 6.37601 14.4452 4.57882 14.111C4.54133 13.876 4.51613 13.6381 4.51613 13.3981C4.51613 10.9085 6.54265 8.88196 9.03226 8.88196C10.9863 8.88196 12.7104 10.131 13.3206 11.989L13.5427 12.6631L14.1929 12.3787C15.0387 12.0082 16.0109 12.0388 16.835 12.413C15.6987 13.1549 14.822 14.2852 14.4263 15.6426L13.0103 20.4949H3.87097ZM12.2581 24.3658C14.2521 24.3658 16.0348 25.7025 16.5937 27.6175L16.967 28.898C16.6085 29.4427 16.3518 29.5271 16.1271 29.5271C15.596 29.5271 15.2586 28.9302 14.7678 27.9482C14.2569 26.9269 13.6205 25.6562 12.2537 25.6562C10.8871 25.6562 10.2511 26.9269 9.74074 27.9482C9.25025 28.9302 8.9135 29.5271 8.38332 29.5271C8.15997 29.5271 7.90449 29.4418 7.54788 28.9018L7.92244 27.6175C8.48129 25.7025 10.264 24.3658 12.2581 24.3658ZM7.12324 30.3581C7.45621 30.6297 7.86385 30.8174 8.38332 30.8174C9.74893 30.8174 10.3853 29.5463 10.8956 28.525C11.3858 27.5431 11.7232 26.9465 12.2537 26.9465C12.7845 26.9465 13.1218 27.5431 13.613 28.525C14.1246 29.5463 14.76 30.8174 16.1271 30.8174C16.6554 30.8174 17.0672 30.613 17.391 30.3509L19.0883 36.1696L18.2516 38.5594H4.73097L7.12324 30.3581Z" fill="#C6F7E2"/>
</g>
<defs>
<clipPath id="clip0">
<rect width="40" height="40" fill="white"/>
</clipPath>
</defs>
</svg>
