<svg width="366" height="253" viewBox="0 0 366 253" fill="none" xmlns="http://www.w3.org/2000/svg">
<g filter="url(#filter0_d)">
<rect x="18" y="12" width="329.693" height="216.206" rx="4" fill="white"/>
</g>
<path d="M245.949 34.8198C245.397 34.8198 244.901 34.7238 244.461 34.5318C244.029 34.3318 243.689 34.0598 243.441 33.7158C243.193 33.3638 243.065 32.9598 243.057 32.5038H244.221C244.261 32.8958 244.421 33.2278 244.701 33.4998C244.989 33.7638 245.405 33.8958 245.949 33.8958C246.469 33.8958 246.877 33.7678 247.173 33.5118C247.477 33.2478 247.629 32.9118 247.629 32.5038C247.629 32.1838 247.541 31.9238 247.365 31.7238C247.189 31.5238 246.969 31.3718 246.705 31.2678C246.441 31.1638 246.085 31.0518 245.637 30.9318C245.085 30.7878 244.641 30.6438 244.305 30.4998C243.977 30.3558 243.693 30.1318 243.453 29.8278C243.221 29.5158 243.105 29.0998 243.105 28.5798C243.105 28.1238 243.221 27.7198 243.453 27.3678C243.685 27.0158 244.009 26.7438 244.425 26.5518C244.849 26.3598 245.333 26.2638 245.877 26.2638C246.661 26.2638 247.301 26.4598 247.797 26.8518C248.301 27.2438 248.585 27.7638 248.649 28.4118H247.449C247.409 28.0918 247.241 27.8118 246.945 27.5718C246.649 27.3238 246.257 27.1998 245.769 27.1998C245.313 27.1998 244.941 27.3198 244.653 27.5598C244.365 27.7918 244.221 28.1198 244.221 28.5438C244.221 28.8478 244.305 29.0958 244.473 29.2878C244.649 29.4798 244.861 29.6278 245.109 29.7318C245.365 29.8278 245.721 29.9398 246.177 30.0678C246.729 30.2198 247.173 30.3718 247.509 30.5238C247.845 30.6678 248.133 30.8958 248.373 31.2078C248.613 31.5118 248.733 31.9278 248.733 32.4558C248.733 32.8638 248.625 33.2478 248.409 33.6078C248.193 33.9678 247.873 34.2598 247.449 34.4838C247.025 34.7078 246.525 34.8198 245.949 34.8198ZM253.724 28.0398C254.22 28.0398 254.668 28.1478 255.068 28.3638C255.468 28.5718 255.78 28.8878 256.004 29.3118C256.236 29.7358 256.352 30.2518 256.352 30.8598V34.7358H255.272V31.0158C255.272 30.3598 255.108 29.8598 254.78 29.5158C254.452 29.1638 254.004 28.9878 253.436 28.9878C252.86 28.9878 252.4 29.1678 252.056 29.5278C251.72 29.8878 251.552 30.4118 251.552 31.0998V34.7358H250.46V25.8558H251.552V29.0958C251.768 28.7598 252.064 28.4998 252.44 28.3158C252.824 28.1318 253.252 28.0398 253.724 28.0398ZM261.124 34.8438C260.508 34.8438 259.948 34.7038 259.444 34.4238C258.948 34.1438 258.556 33.7478 258.268 33.2358C257.988 32.7158 257.848 32.1158 257.848 31.4358C257.848 30.7638 257.992 30.1718 258.28 29.6598C258.576 29.1398 258.976 28.7438 259.48 28.4718C259.984 28.1918 260.548 28.0518 261.172 28.0518C261.796 28.0518 262.36 28.1918 262.864 28.4718C263.368 28.7438 263.764 29.1358 264.052 29.6478C264.348 30.1598 264.496 30.7558 264.496 31.4358C264.496 32.1158 264.344 32.7158 264.04 33.2358C263.744 33.7478 263.34 34.1438 262.828 34.4238C262.316 34.7038 261.748 34.8438 261.124 34.8438ZM261.124 33.8838C261.516 33.8838 261.884 33.7918 262.228 33.6078C262.572 33.4238 262.848 33.1478 263.056 32.7798C263.272 32.4118 263.38 31.9638 263.38 31.4358C263.38 30.9078 263.276 30.4598 263.068 30.0918C262.86 29.7238 262.588 29.4518 262.252 29.2758C261.916 29.0918 261.552 28.9998 261.16 28.9998C260.76 28.9998 260.392 29.0918 260.056 29.2758C259.728 29.4518 259.464 29.7238 259.264 30.0918C259.064 30.4598 258.964 30.9078 258.964 31.4358C258.964 31.9718 259.06 32.4238 259.252 32.7918C259.452 33.1598 259.716 33.4358 260.044 33.6198C260.372 33.7958 260.732 33.8838 261.124 33.8838ZM274.812 28.1598L272.76 34.7358H271.632L270.048 29.5158L268.464 34.7358H267.336L265.272 28.1598H266.388L267.9 33.6798L269.532 28.1598H270.648L272.244 33.6918L273.732 28.1598H274.812ZM276.364 34.8078C276.156 34.8078 275.98 34.7358 275.836 34.5918C275.692 34.4478 275.62 34.2718 275.62 34.0638C275.62 33.8558 275.692 33.6798 275.836 33.5358C275.98 33.3918 276.156 33.3198 276.364 33.3198C276.564 33.3198 276.732 33.3918 276.868 33.5358C277.012 33.6798 277.084 33.8558 277.084 34.0638C277.084 34.2718 277.012 34.4478 276.868 34.5918C276.732 34.7358 276.564 34.8078 276.364 34.8078ZM276.364 29.6718C276.156 29.6718 275.98 29.5998 275.836 29.4558C275.692 29.3118 275.62 29.1358 275.62 28.9278C275.62 28.7198 275.692 28.5438 275.836 28.3998C275.98 28.2558 276.156 28.1838 276.364 28.1838C276.564 28.1838 276.732 28.2558 276.868 28.3998C277.012 28.5438 277.084 28.7198 277.084 28.9278C277.084 29.1358 277.012 29.3118 276.868 29.4558C276.732 29.5998 276.564 29.6718 276.364 29.6718Z" fill="#6A707E"/>
<path d="M290.493 26.4318V34.7358H289.401V28.5438L286.641 34.7358H285.873L283.101 28.5318V34.7358H282.009V26.4318H283.185L286.257 33.2958L289.329 26.4318H290.493ZM295.333 34.8438C294.717 34.8438 294.157 34.7038 293.653 34.4238C293.157 34.1438 292.765 33.7478 292.477 33.2358C292.197 32.7158 292.057 32.1158 292.057 31.4358C292.057 30.7638 292.201 30.1718 292.489 29.6598C292.785 29.1398 293.185 28.7438 293.689 28.4718C294.193 28.1918 294.757 28.0518 295.381 28.0518C296.005 28.0518 296.569 28.1918 297.073 28.4718C297.577 28.7438 297.973 29.1358 298.261 29.6478C298.557 30.1598 298.705 30.7558 298.705 31.4358C298.705 32.1158 298.553 32.7158 298.249 33.2358C297.953 33.7478 297.549 34.1438 297.037 34.4238C296.525 34.7038 295.957 34.8438 295.333 34.8438ZM295.333 33.8838C295.725 33.8838 296.093 33.7918 296.437 33.6078C296.781 33.4238 297.057 33.1478 297.265 32.7798C297.481 32.4118 297.589 31.9638 297.589 31.4358C297.589 30.9078 297.485 30.4598 297.277 30.0918C297.069 29.7238 296.797 29.4518 296.461 29.2758C296.125 29.0918 295.761 28.9998 295.369 28.9998C294.969 28.9998 294.601 29.0918 294.265 29.2758C293.937 29.4518 293.673 29.7238 293.473 30.0918C293.273 30.4598 293.173 30.9078 293.173 31.4358C293.173 31.9718 293.269 32.4238 293.461 32.7918C293.661 33.1598 293.925 33.4358 294.253 33.6198C294.581 33.7958 294.941 33.8838 295.333 33.8838ZM303.465 28.0398C304.265 28.0398 304.913 28.2838 305.409 28.7718C305.905 29.2518 306.153 29.9478 306.153 30.8598V34.7358H305.073V31.0158C305.073 30.3598 304.909 29.8598 304.581 29.5158C304.253 29.1638 303.805 28.9878 303.237 28.9878C302.661 28.9878 302.201 29.1678 301.857 29.5278C301.521 29.8878 301.353 30.4118 301.353 31.0998V34.7358H300.261V28.1598H301.353V29.0958C301.569 28.7598 301.861 28.4998 302.229 28.3158C302.605 28.1318 303.017 28.0398 303.465 28.0398ZM309.389 29.0598V32.9358C309.389 33.2558 309.457 33.4838 309.593 33.6198C309.729 33.7478 309.965 33.8118 310.301 33.8118H311.105V34.7358H310.121C309.513 34.7358 309.057 34.5958 308.753 34.3158C308.449 34.0358 308.297 33.5758 308.297 32.9358V29.0598H307.445V28.1598H308.297V26.5038H309.389V28.1598H311.105V29.0598H309.389ZM315.812 28.0398C316.308 28.0398 316.756 28.1478 317.156 28.3638C317.556 28.5718 317.868 28.8878 318.092 29.3118C318.324 29.7358 318.44 30.2518 318.44 30.8598V34.7358H317.36V31.0158C317.36 30.3598 317.196 29.8598 316.868 29.5158C316.54 29.1638 316.092 28.9878 315.524 28.9878C314.948 28.9878 314.488 29.1678 314.144 29.5278C313.808 29.8878 313.64 30.4118 313.64 31.0998V34.7358H312.548V25.8558H313.64V29.0958C313.856 28.7598 314.152 28.4998 314.528 28.3158C314.912 28.1318 315.34 28.0398 315.812 28.0398ZM321.436 25.8558V34.7358H320.344V25.8558H321.436ZM329.081 28.1598L325.121 37.8318H323.993L325.289 34.6638L322.637 28.1598H323.849L325.913 33.4878L327.953 28.1598H329.081Z" fill="#109CF1"/>
<path d="M339.385 32L335.931 29L342.839 29L339.385 32Z" fill="#AEAEAE"/>
<path d="M52.1353 25.4253V35.8503H50.4253V28.7103L47.2453 35.8503H46.0603L42.8653 28.7103V35.8503H41.1553V25.4253H43.0003L46.6603 33.6003L50.3053 25.4253H52.1353ZM61.9728 27.5853L56.9028 39.7353H55.1328L56.8128 35.7153L53.5578 27.5853H55.4628L57.7878 33.8853L60.2028 27.5853H61.9728ZM74.7498 28.5303C74.7498 29.0603 74.6248 29.5603 74.3748 30.0303C74.1248 30.5003 73.7248 30.8853 73.1748 31.1853C72.6248 31.4753 71.9198 31.6203 71.0598 31.6203H69.1698V35.8503H67.4598V25.4253H71.0598C71.8598 25.4253 72.5348 25.5653 73.0848 25.8453C73.6448 26.1153 74.0598 26.4853 74.3298 26.9553C74.6098 27.4253 74.7498 27.9503 74.7498 28.5303ZM71.0598 30.2253C71.7098 30.2253 72.1948 30.0803 72.5148 29.7903C72.8348 29.4903 72.9948 29.0703 72.9948 28.5303C72.9948 27.3903 72.3498 26.8203 71.0598 26.8203H69.1698V30.2253H71.0598ZM78.2407 28.7853C78.4907 28.3653 78.8207 28.0403 79.2307 27.8103C79.6507 27.5703 80.1457 27.4503 80.7157 27.4503V29.2203H80.2807C79.6107 29.2203 79.1007 29.3903 78.7507 29.7303C78.4107 30.0703 78.2407 30.6603 78.2407 31.5003V35.8503H76.5307V27.5853H78.2407V28.7853ZM86.0225 35.9853C85.2425 35.9853 84.5375 35.8103 83.9075 35.4603C83.2775 35.1003 82.7825 34.6003 82.4225 33.9603C82.0625 33.3103 81.8825 32.5603 81.8825 31.7103C81.8825 30.8703 82.0675 30.1253 82.4375 29.4753C82.8075 28.8253 83.3125 28.3253 83.9525 27.9753C84.5925 27.6253 85.3075 27.4503 86.0975 27.4503C86.8875 27.4503 87.6025 27.6253 88.2425 27.9753C88.8825 28.3253 89.3875 28.8253 89.7575 29.4753C90.1275 30.1253 90.3125 30.8703 90.3125 31.7103C90.3125 32.5503 90.1225 33.2953 89.7425 33.9453C89.3625 34.5953 88.8425 35.1003 88.1825 35.4603C87.5325 35.8103 86.8125 35.9853 86.0225 35.9853ZM86.0225 34.5003C86.4625 34.5003 86.8725 34.3953 87.2525 34.1853C87.6425 33.9753 87.9575 33.6603 88.1975 33.2403C88.4375 32.8203 88.5575 32.3103 88.5575 31.7103C88.5575 31.1103 88.4425 30.6053 88.2125 30.1953C87.9825 29.7753 87.6775 29.4603 87.2975 29.2503C86.9175 29.0403 86.5075 28.9353 86.0675 28.9353C85.6275 28.9353 85.2175 29.0403 84.8375 29.2503C84.4675 29.4603 84.1725 29.7753 83.9525 30.1953C83.7325 30.6053 83.6225 31.1103 83.6225 31.7103C83.6225 32.6003 83.8475 33.2903 84.2975 33.7803C84.7575 34.2603 85.3325 34.5003 86.0225 34.5003ZM95.4829 27.4503C96.1229 27.4503 96.6879 27.5803 97.1779 27.8403C97.6779 28.0903 98.0679 28.4053 98.3479 28.7853V27.5853H100.073V35.9853C100.073 36.7453 99.9129 37.4203 99.5929 38.0103C99.2729 38.6103 98.8079 39.0803 98.1979 39.4203C97.5979 39.7603 96.8779 39.9303 96.0379 39.9303C94.9179 39.9303 93.9879 39.6653 93.2479 39.1353C92.5079 38.6153 92.0879 37.9053 91.9879 37.0053H93.6829C93.8129 37.4353 94.0879 37.7803 94.5079 38.0403C94.9379 38.3103 95.4479 38.4453 96.0379 38.4453C96.7279 38.4453 97.2829 38.2353 97.7029 37.8153C98.1329 37.3953 98.3479 36.7853 98.3479 35.9853V34.6053C98.0579 34.9953 97.6629 35.3253 97.1629 35.5953C96.6729 35.8553 96.1129 35.9853 95.4829 35.9853C94.7629 35.9853 94.1029 35.8053 93.5029 35.4453C92.9129 35.0753 92.4429 34.5653 92.0929 33.9153C91.7529 33.2553 91.5829 32.5103 91.5829 31.6803C91.5829 30.8503 91.7529 30.1153 92.0929 29.4753C92.4429 28.8353 92.9129 28.3403 93.5029 27.9903C94.1029 27.6303 94.7629 27.4503 95.4829 27.4503ZM98.3479 31.7103C98.3479 31.1403 98.2279 30.6453 97.9879 30.2253C97.7579 29.8053 97.4529 29.4853 97.0729 29.2653C96.6929 29.0453 96.2829 28.9353 95.8429 28.9353C95.4029 28.9353 94.9929 29.0453 94.6129 29.2653C94.2329 29.4753 93.9229 29.7903 93.6829 30.2103C93.4529 30.6203 93.3379 31.1103 93.3379 31.6803C93.3379 32.2503 93.4529 32.7503 93.6829 33.1803C93.9229 33.6103 94.2329 33.9403 94.6129 34.1703C95.0029 34.3903 95.4129 34.5003 95.8429 34.5003C96.2829 34.5003 96.6929 34.3903 97.0729 34.1703C97.4529 33.9503 97.7579 33.6303 97.9879 33.2103C98.2279 32.7803 98.3479 32.2803 98.3479 31.7103ZM104.179 28.7853C104.429 28.3653 104.759 28.0403 105.169 27.8103C105.589 27.5703 106.084 27.4503 106.654 27.4503V29.2203H106.219C105.549 29.2203 105.039 29.3903 104.689 29.7303C104.349 30.0703 104.179 30.6603 104.179 31.5003V35.8503H102.469V27.5853H104.179V28.7853ZM115.951 31.5153C115.951 31.8253 115.931 32.1053 115.891 32.3553H109.576C109.626 33.0153 109.871 33.5453 110.311 33.9453C110.751 34.3453 111.291 34.5453 111.931 34.5453C112.851 34.5453 113.501 34.1603 113.881 33.3903H115.726C115.476 34.1503 115.021 34.7753 114.361 35.2653C113.711 35.7453 112.901 35.9853 111.931 35.9853C111.141 35.9853 110.431 35.8103 109.801 35.4603C109.181 35.1003 108.691 34.6003 108.331 33.9603C107.981 33.3103 107.806 32.5603 107.806 31.7103C107.806 30.8603 107.976 30.1153 108.316 29.4753C108.666 28.8253 109.151 28.3253 109.771 27.9753C110.401 27.6253 111.121 27.4503 111.931 27.4503C112.711 27.4503 113.406 27.6203 114.016 27.9603C114.626 28.3003 115.101 28.7803 115.441 29.4003C115.781 30.0103 115.951 30.7153 115.951 31.5153ZM114.166 30.9753C114.156 30.3453 113.931 29.8403 113.491 29.4603C113.051 29.0803 112.506 28.8903 111.856 28.8903C111.266 28.8903 110.761 29.0803 110.341 29.4603C109.921 29.8303 109.671 30.3353 109.591 30.9753H114.166ZM120.784 35.9853C120.134 35.9853 119.549 35.8703 119.029 35.6403C118.519 35.4003 118.114 35.0803 117.814 34.6803C117.514 34.2703 117.354 33.8153 117.334 33.3153H119.104C119.134 33.6653 119.299 33.9603 119.599 34.2003C119.909 34.4303 120.294 34.5453 120.754 34.5453C121.234 34.5453 121.604 34.4553 121.864 34.2753C122.134 34.0853 122.269 33.8453 122.269 33.5553C122.269 33.2453 122.119 33.0153 121.819 32.8653C121.529 32.7153 121.064 32.5503 120.424 32.3703C119.804 32.2003 119.299 32.0353 118.909 31.8753C118.519 31.7153 118.179 31.4703 117.889 31.1403C117.609 30.8103 117.469 30.3753 117.469 29.8353C117.469 29.3953 117.599 28.9953 117.859 28.6353C118.119 28.2653 118.489 27.9753 118.969 27.7653C119.459 27.5553 120.019 27.4503 120.649 27.4503C121.589 27.4503 122.344 27.6903 122.914 28.1703C123.494 28.6403 123.804 29.2853 123.844 30.1053H122.134C122.104 29.7353 121.954 29.4403 121.684 29.2203C121.414 29.0003 121.049 28.8903 120.589 28.8903C120.139 28.8903 119.794 28.9753 119.554 29.1453C119.314 29.3153 119.194 29.5403 119.194 29.8203C119.194 30.0403 119.274 30.2253 119.434 30.3753C119.594 30.5253 119.789 30.6453 120.019 30.7353C120.249 30.8153 120.589 30.9203 121.039 31.0503C121.639 31.2103 122.129 31.3753 122.509 31.5453C122.899 31.7053 123.234 31.9453 123.514 32.2653C123.794 32.5853 123.939 33.0103 123.949 33.5403C123.949 34.0103 123.819 34.4303 123.559 34.8003C123.299 35.1703 122.929 35.4603 122.449 35.6703C121.979 35.8803 121.424 35.9853 120.784 35.9853ZM128.946 35.9853C128.296 35.9853 127.711 35.8703 127.191 35.6403C126.681 35.4003 126.276 35.0803 125.976 34.6803C125.676 34.2703 125.516 33.8153 125.496 33.3153H127.266C127.296 33.6653 127.461 33.9603 127.761 34.2003C128.071 34.4303 128.456 34.5453 128.916 34.5453C129.396 34.5453 129.766 34.4553 130.026 34.2753C130.296 34.0853 130.431 33.8453 130.431 33.5553C130.431 33.2453 130.281 33.0153 129.981 32.8653C129.691 32.7153 129.226 32.5503 128.586 32.3703C127.966 32.2003 127.461 32.0353 127.071 31.8753C126.681 31.7153 126.341 31.4703 126.051 31.1403C125.771 30.8103 125.631 30.3753 125.631 29.8353C125.631 29.3953 125.761 28.9953 126.021 28.6353C126.281 28.2653 126.651 27.9753 127.131 27.7653C127.621 27.5553 128.181 27.4503 128.811 27.4503C129.751 27.4503 130.506 27.6903 131.076 28.1703C131.656 28.6403 131.966 29.2853 132.006 30.1053H130.296C130.266 29.7353 130.116 29.4403 129.846 29.2203C129.576 29.0003 129.211 28.8903 128.751 28.8903C128.301 28.8903 127.956 28.9753 127.716 29.1453C127.476 29.3153 127.356 29.5403 127.356 29.8203C127.356 30.0403 127.436 30.2253 127.596 30.3753C127.756 30.5253 127.951 30.6453 128.181 30.7353C128.411 30.8153 128.751 30.9203 129.201 31.0503C129.801 31.2103 130.291 31.3753 130.671 31.5453C131.061 31.7053 131.396 31.9453 131.676 32.2653C131.956 32.5853 132.101 33.0103 132.111 33.5403C132.111 34.0103 131.981 34.4303 131.721 34.8003C131.461 35.1703 131.091 35.4603 130.611 35.6703C130.141 35.8803 129.586 35.9853 128.946 35.9853Z" fill="#192A3E"/>
<path d="M68.7156 208.753V214.933C68.7156 215.621 68.5036 216.173 68.0796 216.589C67.6556 216.997 67.0956 217.201 66.3996 217.201C65.6956 217.201 65.1316 216.993 64.7076 216.577C64.2836 216.153 64.0716 215.577 64.0716 214.849H65.1636C65.1716 215.257 65.2756 215.589 65.4756 215.845C65.6836 216.101 65.9916 216.229 66.3996 216.229C66.8076 216.229 67.1116 216.109 67.3116 215.869C67.5116 215.621 67.6116 215.309 67.6116 214.933V208.753H68.7156ZM70.5789 213.805C70.5789 213.133 70.7149 212.545 70.9869 212.041C71.2589 211.529 71.6309 211.133 72.1029 210.853C72.5829 210.573 73.1149 210.433 73.6989 210.433C74.2749 210.433 74.7749 210.557 75.1989 210.805C75.6229 211.053 75.9389 211.365 76.1469 211.741V210.541H77.2509V217.117H76.1469V215.893C75.9309 216.277 75.6069 216.597 75.1749 216.853C74.7509 217.101 74.2549 217.225 73.6869 217.225C73.1029 217.225 72.5749 217.081 72.1029 216.793C71.6309 216.505 71.2589 216.101 70.9869 215.581C70.7149 215.061 70.5789 214.469 70.5789 213.805ZM76.1469 213.817C76.1469 213.321 76.0469 212.889 75.8469 212.521C75.6469 212.153 75.3749 211.873 75.0309 211.681C74.6949 211.481 74.3229 211.381 73.9149 211.381C73.5069 211.381 73.1349 211.477 72.7989 211.669C72.4629 211.861 72.1949 212.141 71.9949 212.509C71.7949 212.877 71.6949 213.309 71.6949 213.805C71.6949 214.309 71.7949 214.749 71.9949 215.125C72.1949 215.493 72.4629 215.777 72.7989 215.977C73.1349 216.169 73.5069 216.265 73.9149 216.265C74.3229 216.265 74.6949 216.169 75.0309 215.977C75.3749 215.777 75.6469 215.493 75.8469 215.125C76.0469 214.749 76.1469 214.313 76.1469 213.817ZM82.4202 210.421C83.2202 210.421 83.8682 210.665 84.3642 211.153C84.8602 211.633 85.1082 212.329 85.1082 213.241V217.117H84.0282V213.397C84.0282 212.741 83.8642 212.241 83.5362 211.897C83.2082 211.545 82.7602 211.369 82.1922 211.369C81.6162 211.369 81.1562 211.549 80.8122 211.909C80.4762 212.269 80.3082 212.793 80.3082 213.481V217.117H79.2162V210.541H80.3082V211.477C80.5242 211.141 80.8162 210.881 81.1842 210.697C81.5602 210.513 81.9722 210.421 82.4202 210.421Z" fill="#4C5862"/>
<path d="M40.0144 196.348C40.0144 194.972 40.2384 193.9 40.6864 193.132C41.1344 192.356 41.9184 191.968 43.0384 191.968C44.1504 191.968 44.9304 192.356 45.3784 193.132C45.8264 193.9 46.0504 194.972 46.0504 196.348C46.0504 197.748 45.8264 198.836 45.3784 199.612C44.9304 200.388 44.1504 200.776 43.0384 200.776C41.9184 200.776 41.1344 200.388 40.6864 199.612C40.2384 198.836 40.0144 197.748 40.0144 196.348ZM44.9704 196.348C44.9704 195.652 44.9224 195.064 44.8264 194.584C44.7384 194.096 44.5504 193.704 44.2624 193.408C43.9824 193.112 43.5744 192.964 43.0384 192.964C42.4944 192.964 42.0784 193.112 41.7904 193.408C41.5104 193.704 41.3224 194.096 41.2264 194.584C41.1384 195.064 41.0944 195.652 41.0944 196.348C41.0944 197.068 41.1384 197.672 41.2264 198.16C41.3224 198.648 41.5104 199.04 41.7904 199.336C42.0784 199.632 42.4944 199.78 43.0384 199.78C43.5744 199.78 43.9824 199.632 44.2624 199.336C44.5504 199.04 44.7384 198.648 44.8264 198.16C44.9224 197.672 44.9704 197.068 44.9704 196.348Z" fill="#4C5862"/>
<path d="M45.5464 165.394H41.3344V168.13C41.5184 167.874 41.7904 167.666 42.1504 167.506C42.5104 167.338 42.8984 167.254 43.3144 167.254C43.9784 167.254 44.5184 167.394 44.9344 167.674C45.3504 167.946 45.6464 168.302 45.8224 168.742C46.0064 169.174 46.0984 169.634 46.0984 170.122C46.0984 170.698 45.9904 171.214 45.7744 171.67C45.5584 172.126 45.2264 172.486 44.7784 172.75C44.3384 173.014 43.7904 173.146 43.1344 173.146C42.2944 173.146 41.6144 172.93 41.0944 172.498C40.5744 172.066 40.2584 171.49 40.1464 170.77H41.2144C41.3184 171.226 41.5384 171.582 41.8744 171.838C42.2104 172.094 42.6344 172.222 43.1464 172.222C43.7784 172.222 44.2544 172.034 44.5744 171.658C44.8944 171.274 45.0544 170.77 45.0544 170.146C45.0544 169.522 44.8944 169.042 44.5744 168.706C44.2544 168.362 43.7824 168.19 43.1584 168.19C42.7344 168.19 42.3624 168.294 42.0424 168.502C41.7304 168.702 41.5024 168.978 41.3584 169.33H40.3264V164.434H45.5464V165.394Z" fill="#4C5862"/>
<path d="M39.7264 137.787V136.791H41.9824V145.467H40.8784V137.787H39.7264ZM43.9781 141.039C43.9781 139.663 44.2021 138.591 44.6501 137.823C45.0981 137.047 45.8821 136.659 47.0021 136.659C48.1141 136.659 48.8941 137.047 49.3421 137.823C49.7901 138.591 50.0141 139.663 50.0141 141.039C50.0141 142.439 49.7901 143.527 49.3421 144.303C48.8941 145.079 48.1141 145.467 47.0021 145.467C45.8821 145.467 45.0981 145.079 44.6501 144.303C44.2021 143.527 43.9781 142.439 43.9781 141.039ZM48.9341 141.039C48.9341 140.343 48.8861 139.755 48.7901 139.275C48.7021 138.787 48.5141 138.395 48.2261 138.099C47.9461 137.803 47.5381 137.655 47.0021 137.655C46.4581 137.655 46.0421 137.803 45.7541 138.099C45.4741 138.395 45.2861 138.787 45.1901 139.275C45.1021 139.755 45.0581 140.343 45.0581 141.039C45.0581 141.759 45.1021 142.363 45.1901 142.851C45.2861 143.339 45.4741 143.731 45.7541 144.027C46.0421 144.323 46.4581 144.471 47.0021 144.471C47.5381 144.471 47.9461 144.323 48.2261 144.027C48.5141 143.731 48.7021 143.339 48.7901 142.851C48.8861 142.363 48.9341 141.759 48.9341 141.039Z" fill="#4C5862"/>
<path d="M39.7264 110.133V109.137H41.9824V117.813H40.8784V110.133H39.7264ZM49.5101 110.085H45.2981V112.821C45.4821 112.565 45.7541 112.357 46.1141 112.197C46.4741 112.029 46.8621 111.945 47.2781 111.945C47.9421 111.945 48.4821 112.085 48.8981 112.365C49.3141 112.637 49.6101 112.993 49.7861 113.433C49.9701 113.865 50.0621 114.325 50.0621 114.813C50.0621 115.389 49.9541 115.905 49.7381 116.361C49.5221 116.817 49.1901 117.177 48.7421 117.441C48.3021 117.705 47.7541 117.837 47.0981 117.837C46.2581 117.837 45.5781 117.621 45.0581 117.189C44.5381 116.757 44.2221 116.181 44.1101 115.461H45.1781C45.2821 115.917 45.5021 116.273 45.8381 116.529C46.1741 116.785 46.5981 116.913 47.1101 116.913C47.7421 116.913 48.2181 116.725 48.5381 116.349C48.8581 115.965 49.0181 115.461 49.0181 114.837C49.0181 114.213 48.8581 113.733 48.5381 113.397C48.2181 113.053 47.7461 112.881 47.1221 112.881C46.6981 112.881 46.3261 112.985 46.0061 113.193C45.6941 113.393 45.4661 113.669 45.3221 114.021H44.2901V109.125H49.5101V110.085Z" fill="#4C5862"/>
<path d="M39.8824 89.2827C40.8984 88.4667 41.6944 87.7987 42.2704 87.2787C42.8464 86.7507 43.3304 86.2027 43.7224 85.6347C44.1224 85.0587 44.3224 84.4947 44.3224 83.9427C44.3224 83.4227 44.1944 83.0147 43.9384 82.7187C43.6904 82.4147 43.2864 82.2627 42.7264 82.2627C42.1824 82.2627 41.7584 82.4347 41.4544 82.7787C41.1584 83.1147 40.9984 83.5667 40.9744 84.1347H39.9184C39.9504 83.2387 40.2224 82.5467 40.7344 82.0587C41.2464 81.5707 41.9064 81.3267 42.7144 81.3267C43.5384 81.3267 44.1904 81.5547 44.6704 82.0107C45.1584 82.4667 45.4024 83.0947 45.4024 83.8947C45.4024 84.5587 45.2024 85.2067 44.8024 85.8387C44.4104 86.4627 43.9624 87.0147 43.4584 87.4947C42.9544 87.9667 42.3104 88.5187 41.5264 89.1507H45.6544V90.0627H39.8824V89.2827ZM47.0367 85.7307C47.0367 84.3547 47.2607 83.2827 47.7087 82.5147C48.1567 81.7387 48.9407 81.3507 50.0607 81.3507C51.1727 81.3507 51.9527 81.7387 52.4007 82.5147C52.8487 83.2827 53.0727 84.3547 53.0727 85.7307C53.0727 87.1307 52.8487 88.2187 52.4007 88.9947C51.9527 89.7707 51.1727 90.1587 50.0607 90.1587C48.9407 90.1587 48.1567 89.7707 47.7087 88.9947C47.2607 88.2187 47.0367 87.1307 47.0367 85.7307ZM51.9927 85.7307C51.9927 85.0347 51.9447 84.4467 51.8487 83.9667C51.7607 83.4787 51.5727 83.0867 51.2847 82.7907C51.0047 82.4947 50.5967 82.3467 50.0607 82.3467C49.5167 82.3467 49.1007 82.4947 48.8127 82.7907C48.5327 83.0867 48.3447 83.4787 48.2487 83.9667C48.1607 84.4467 48.1167 85.0347 48.1167 85.7307C48.1167 86.4507 48.1607 87.0547 48.2487 87.5427C48.3447 88.0307 48.5327 88.4227 48.8127 88.7187C49.1007 89.0147 49.5167 89.1627 50.0607 89.1627C50.5967 89.1627 51.0047 89.0147 51.2847 88.7187C51.5727 88.4227 51.7607 88.0307 51.8487 87.5427C51.9447 87.0547 51.9927 86.4507 51.9927 85.7307Z" fill="#4C5862"/>
<path d="M316.338 215.257H312.69L312.018 217.117H310.866L313.89 208.801H315.15L318.162 217.117H317.01L316.338 215.257ZM316.026 214.369L314.514 210.145L313.002 214.369H316.026ZM320.692 211.753C320.908 211.377 321.228 211.065 321.652 210.817C322.084 210.561 322.584 210.433 323.152 210.433C323.736 210.433 324.264 210.573 324.736 210.853C325.216 211.133 325.592 211.529 325.864 212.041C326.136 212.545 326.272 213.133 326.272 213.805C326.272 214.469 326.136 215.061 325.864 215.581C325.592 216.101 325.216 216.505 324.736 216.793C324.264 217.081 323.736 217.225 323.152 217.225C322.592 217.225 322.096 217.101 321.664 216.853C321.24 216.597 320.916 216.281 320.692 215.905V220.237H319.6V210.541H320.692V211.753ZM325.156 213.805C325.156 213.309 325.056 212.877 324.856 212.509C324.656 212.141 324.384 211.861 324.04 211.669C323.704 211.477 323.332 211.381 322.924 211.381C322.524 211.381 322.152 211.481 321.808 211.681C321.472 211.873 321.2 212.157 320.992 212.533C320.792 212.901 320.692 213.329 320.692 213.817C320.692 214.313 320.792 214.749 320.992 215.125C321.2 215.493 321.472 215.777 321.808 215.977C322.152 216.169 322.524 216.265 322.924 216.265C323.332 216.265 323.704 216.169 324.04 215.977C324.384 215.777 324.656 215.493 324.856 215.125C325.056 214.749 325.156 214.309 325.156 213.805ZM328.921 211.609C329.113 211.233 329.385 210.941 329.737 210.733C330.097 210.525 330.533 210.421 331.045 210.421V211.549H330.757C329.533 211.549 328.921 212.213 328.921 213.541V217.117H327.829V210.541H328.921V211.609ZM332.99 209.473C332.782 209.473 332.606 209.401 332.462 209.257C332.318 209.113 332.246 208.937 332.246 208.729C332.246 208.521 332.318 208.345 332.462 208.201C332.606 208.057 332.782 207.985 332.99 207.985C333.19 207.985 333.358 208.057 333.494 208.201C333.638 208.345 333.71 208.521 333.71 208.729C333.71 208.937 333.638 209.113 333.494 209.257C333.358 209.401 333.19 209.473 332.99 209.473ZM333.518 210.541V217.117H332.426V210.541H333.518ZM336.591 208.237V217.117H335.499V208.237H336.591Z" fill="#4C5862"/>
<path d="M151.275 208.753V209.641H147.639V212.461H150.591V213.349H147.639V217.117H146.547V208.753H151.275ZM158.714 213.577C158.714 213.785 158.702 214.005 158.678 214.237H153.422C153.462 214.885 153.682 215.393 154.082 215.761C154.49 216.121 154.982 216.301 155.558 216.301C156.03 216.301 156.422 216.193 156.734 215.977C157.054 215.753 157.278 215.457 157.406 215.089H158.582C158.406 215.721 158.054 216.237 157.526 216.637C156.998 217.029 156.342 217.225 155.558 217.225C154.934 217.225 154.374 217.085 153.878 216.805C153.39 216.525 153.006 216.129 152.726 215.617C152.446 215.097 152.306 214.497 152.306 213.817C152.306 213.137 152.442 212.541 152.714 212.029C152.986 211.517 153.366 211.125 153.854 210.853C154.35 210.573 154.918 210.433 155.558 210.433C156.182 210.433 156.734 210.569 157.214 210.841C157.694 211.113 158.062 211.489 158.318 211.969C158.582 212.441 158.714 212.977 158.714 213.577ZM157.586 213.349C157.586 212.933 157.494 212.577 157.31 212.281C157.126 211.977 156.874 211.749 156.554 211.597C156.242 211.437 155.894 211.357 155.51 211.357C154.958 211.357 154.486 211.533 154.094 211.885C153.71 212.237 153.49 212.725 153.434 213.349H157.586ZM161.368 211.765C161.592 211.373 161.92 211.053 162.352 210.805C162.784 210.557 163.276 210.433 163.828 210.433C164.42 210.433 164.952 210.573 165.424 210.853C165.896 211.133 166.268 211.529 166.54 212.041C166.812 212.545 166.948 213.133 166.948 213.805C166.948 214.469 166.812 215.061 166.54 215.581C166.268 216.101 165.892 216.505 165.412 216.793C164.94 217.081 164.412 217.225 163.828 217.225C163.26 217.225 162.76 217.101 162.328 216.853C161.904 216.605 161.584 216.289 161.368 215.905V217.117H160.276V208.237H161.368V211.765ZM165.832 213.805C165.832 213.309 165.732 212.877 165.532 212.509C165.332 212.141 165.06 211.861 164.716 211.669C164.38 211.477 164.008 211.381 163.6 211.381C163.2 211.381 162.828 211.481 162.484 211.681C162.148 211.873 161.876 212.157 161.668 212.533C161.468 212.901 161.368 213.329 161.368 213.817C161.368 214.313 161.468 214.749 161.668 215.125C161.876 215.493 162.148 215.777 162.484 215.977C162.828 216.169 163.2 216.265 163.6 216.265C164.008 216.265 164.38 216.169 164.716 215.977C165.06 215.777 165.332 215.493 165.532 215.125C165.732 214.749 165.832 214.309 165.832 213.805Z" fill="#4C5862"/>
<path d="M237.835 208.813V217.117H236.743V210.925L233.983 217.117H233.215L230.443 210.913V217.117H229.351V208.813H230.527L233.599 215.677L236.671 208.813H237.835ZM239.398 213.805C239.398 213.133 239.534 212.545 239.806 212.041C240.078 211.529 240.45 211.133 240.922 210.853C241.402 210.573 241.934 210.433 242.518 210.433C243.094 210.433 243.594 210.557 244.018 210.805C244.442 211.053 244.758 211.365 244.966 211.741V210.541H246.07V217.117H244.966V215.893C244.75 216.277 244.426 216.597 243.994 216.853C243.57 217.101 243.074 217.225 242.506 217.225C241.922 217.225 241.394 217.081 240.922 216.793C240.45 216.505 240.078 216.101 239.806 215.581C239.534 215.061 239.398 214.469 239.398 213.805ZM244.966 213.817C244.966 213.321 244.866 212.889 244.666 212.521C244.466 212.153 244.194 211.873 243.85 211.681C243.514 211.481 243.142 211.381 242.734 211.381C242.326 211.381 241.954 211.477 241.618 211.669C241.282 211.861 241.014 212.141 240.814 212.509C240.614 212.877 240.514 213.309 240.514 213.805C240.514 214.309 240.614 214.749 240.814 215.125C241.014 215.493 241.282 215.777 241.618 215.977C241.954 216.169 242.326 216.265 242.734 216.265C243.142 216.265 243.514 216.169 243.85 215.977C244.194 215.777 244.466 215.493 244.666 215.125C244.866 214.749 244.966 214.313 244.966 213.817ZM249.128 211.609C249.32 211.233 249.592 210.941 249.944 210.733C250.304 210.525 250.74 210.421 251.252 210.421V211.549H250.964C249.74 211.549 249.128 212.213 249.128 213.541V217.117H248.036V210.541H249.128V211.609ZM252.224 213.817C252.224 213.137 252.36 212.545 252.632 212.041C252.904 211.529 253.28 211.133 253.76 210.853C254.248 210.573 254.804 210.433 255.428 210.433C256.236 210.433 256.9 210.629 257.42 211.021C257.948 211.413 258.296 211.957 258.464 212.653H257.288C257.176 212.253 256.956 211.937 256.628 211.705C256.308 211.473 255.908 211.357 255.428 211.357C254.804 211.357 254.3 211.573 253.916 212.005C253.532 212.429 253.34 213.033 253.34 213.817C253.34 214.609 253.532 215.221 253.916 215.653C254.3 216.085 254.804 216.301 255.428 216.301C255.908 216.301 256.308 216.189 256.628 215.965C256.948 215.741 257.168 215.421 257.288 215.005H258.464C258.288 215.677 257.936 216.217 257.408 216.625C256.88 217.025 256.22 217.225 255.428 217.225C254.804 217.225 254.248 217.085 253.76 216.805C253.28 216.525 252.904 216.129 252.632 215.617C252.36 215.105 252.224 214.505 252.224 213.817ZM263.305 210.421C263.801 210.421 264.249 210.529 264.649 210.745C265.049 210.953 265.361 211.269 265.585 211.693C265.817 212.117 265.933 212.633 265.933 213.241V217.117H264.853V213.397C264.853 212.741 264.689 212.241 264.361 211.897C264.033 211.545 263.585 211.369 263.017 211.369C262.441 211.369 261.981 211.549 261.637 211.909C261.301 212.269 261.133 212.793 261.133 213.481V217.117H260.041V208.237H261.133V211.477C261.349 211.141 261.645 210.881 262.021 210.697C262.405 210.513 262.833 210.421 263.305 210.421Z" fill="#4C5862"/>
<line x1="271.087" y1="83.4438" x2="271.087" y2="193.432" stroke="#C2CFE0"/>
<line x1="63.5796" y1="193.561" x2="340.856" y2="193.561" stroke="#D3D8DD" stroke-miterlimit="16" stroke-dasharray="8 8"/>
<line x1="63.5796" y1="165.906" x2="340.856" y2="165.906" stroke="#D3D8DD" stroke-miterlimit="16" stroke-dasharray="8 8"/>
<line x1="63.5796" y1="138.252" x2="340.856" y2="138.252" stroke="#D3D8DD" stroke-miterlimit="16" stroke-dasharray="8 8"/>
<line x1="63.5796" y1="110.598" x2="340.856" y2="110.598" stroke="#D3D8DD" stroke-miterlimit="16" stroke-dasharray="8 8"/>
<line x1="63.5796" y1="82.9438" x2="340.856" y2="82.9438" stroke="#D3D8DD" stroke-miterlimit="16" stroke-dasharray="8 8"/>
<mask id="mask0" mask-type="alpha" maskUnits="userSpaceOnUse" x="63" y="83" width="278" height="112">
<rect x="63.5796" y="83.4438" width="277.277" height="110.617" fill="#C4C4C4"/>
</mask>
<g mask="url(#mask0)">
<path opacity="0.2" d="M108.946 139.373C86.5103 138.827 65.1755 164.5 59.4016 175.205V194.689H357.189L346.934 110.155C324.144 114.869 299.835 105.441 292.885 105.207C277.213 105.207 253.843 132.084 243.395 146.206C234.817 158.779 223.874 161.467 219.475 161.239C199.019 161.786 183.457 133.678 178.233 119.557C173.613 103.703 168.413 100.424 165.86 100.424C161.576 100.413 155.137 105.07 148.538 120.923C141.94 136.776 131.492 141.195 127.092 141.423C120.939 141.741 113.62 139.373 108.946 139.373Z" fill="url(#paint0_linear)"/>
<path d="M108.946 139.373L108.922 140.373C108.93 140.373 108.938 140.373 108.946 140.373L108.946 139.373ZM127.092 141.423L127.041 140.424L127.092 141.423ZM165.86 100.424L165.858 101.424H165.86L165.86 100.424ZM178.233 119.557L177.272 119.836C177.279 119.859 177.286 119.881 177.295 119.904L178.233 119.557ZM219.475 161.239L219.526 160.24C219.5 160.239 219.474 160.239 219.448 160.239L219.475 161.239ZM243.395 146.206L242.591 145.611C242.583 145.621 242.576 145.632 242.569 145.642L243.395 146.206ZM292.885 105.207L292.919 104.207C292.908 104.207 292.897 104.207 292.885 104.207V105.207ZM60.2818 175.68C63.1078 170.44 69.8066 161.439 78.581 153.825C87.3733 146.196 98.0763 140.109 108.922 140.373L108.97 138.374C97.38 138.091 86.1977 144.568 77.2702 152.315C68.3248 160.077 61.4693 169.265 58.5215 174.731L60.2818 175.68ZM108.946 140.373C111.172 140.373 114.052 140.94 117.294 141.503C120.472 142.054 123.942 142.587 127.144 142.422L127.041 140.424C124.09 140.577 120.823 140.085 117.635 139.532C114.511 138.99 111.394 138.373 108.946 138.373L108.946 140.373ZM127.144 142.422C132.002 142.17 142.746 137.442 149.462 121.308L147.615 120.539C141.133 136.111 130.981 140.22 127.041 140.424L127.144 142.422ZM149.462 121.308C152.735 113.444 155.937 108.436 158.794 105.411C161.656 102.381 164.091 101.419 165.858 101.424L165.862 99.4236C163.345 99.4176 160.419 100.779 157.34 104.038C154.257 107.302 150.941 112.549 147.615 120.539L149.462 121.308ZM165.86 101.424C166.708 101.424 168.387 101.987 170.485 104.662C172.573 107.325 174.982 111.975 177.272 119.836L179.193 119.277C176.864 111.285 174.364 106.368 172.058 103.428C169.763 100.5 167.565 99.4236 165.86 99.4236L165.86 101.424ZM177.295 119.904C179.935 127.041 185.18 137.701 192.366 146.53C199.523 155.323 208.795 162.525 219.501 162.239L219.448 160.239C209.698 160.5 200.961 153.921 193.917 145.267C186.902 136.648 181.754 126.194 179.17 119.21L177.295 119.904ZM219.423 162.238C224.186 162.484 235.455 159.618 244.221 146.77L242.569 145.642C234.178 157.94 223.562 160.449 219.526 160.24L219.423 162.238ZM244.199 146.801C249.399 139.772 257.813 129.573 266.863 121.142C271.388 116.927 276.048 113.176 280.525 110.484C285.019 107.782 289.232 106.207 292.885 106.207V104.207C288.702 104.207 284.117 105.991 279.495 108.77C274.856 111.559 270.082 115.41 265.499 119.679C256.334 128.218 247.839 138.518 242.591 145.611L244.199 146.801ZM292.852 106.206C294.466 106.261 297.172 106.862 300.83 107.716C304.436 108.557 308.863 109.617 313.789 110.52C323.633 112.326 335.556 113.53 347.136 111.134L346.731 109.176C335.522 111.494 323.895 110.341 314.15 108.553C309.281 107.66 304.903 106.613 301.285 105.768C297.718 104.935 294.779 104.27 292.919 104.207L292.852 106.206Z" fill="#109CF1"/>
<path d="M273.766 116.126C273.766 117.14 272.699 118.268 270.967 118.268C269.236 118.268 268.169 117.14 268.169 116.126C268.169 115.112 269.236 113.983 270.967 113.983C272.699 113.983 273.766 115.112 273.766 116.126Z" fill="white" stroke="#109CF1" stroke-width="2"/>
</g>
<path d="M53.4185 60.7382L53.1145 62.1782H54.2185V62.8182H52.9785L52.6345 64.4182H51.9385L52.2825 62.8182H50.6025L50.2585 64.4182H49.5625L49.9065 62.8182H48.6505V62.1782H50.0425L50.3465 60.7382H49.1065V60.0982H50.4825L50.8265 58.4982H51.5225L51.1785 60.0982H52.8585L53.2025 58.4982H53.8985L53.5545 60.0982H54.6665V60.7382H53.4185ZM52.7225 60.7382H51.0425L50.7385 62.1782H52.4185L52.7225 60.7382ZM57.742 62.2182C57.742 61.7649 57.8327 61.3702 58.014 61.0342C58.1954 60.6929 58.446 60.4289 58.766 60.2422C59.0914 60.0555 59.462 59.9622 59.878 59.9622C60.4167 59.9622 60.8594 60.0929 61.206 60.3542C61.558 60.6155 61.79 60.9782 61.902 61.4422H61.118C61.0434 61.1755 60.8967 60.9649 60.678 60.8102C60.4647 60.6555 60.198 60.5782 59.878 60.5782C59.462 60.5782 59.126 60.7222 58.87 61.0102C58.614 61.2929 58.486 61.6955 58.486 62.2182C58.486 62.7462 58.614 63.1542 58.87 63.4422C59.126 63.7302 59.462 63.8742 59.878 63.8742C60.198 63.8742 60.4647 63.7995 60.678 63.6502C60.8914 63.5009 61.038 63.2875 61.118 63.0102H61.902C61.7847 63.4582 61.55 63.8182 61.198 64.0902C60.846 64.3569 60.406 64.4902 59.878 64.4902C59.462 64.4902 59.0914 64.3969 58.766 64.2102C58.446 64.0235 58.1954 63.7595 58.014 63.4182C57.8327 63.0769 57.742 62.6769 57.742 62.2182ZM64.8654 64.4902C64.4547 64.4902 64.0814 64.3969 63.7454 64.2102C63.4147 64.0235 63.1534 63.7595 62.9614 63.4182C62.7747 63.0715 62.6814 62.6715 62.6814 62.2182C62.6814 61.7702 62.7774 61.3755 62.9694 61.0342C63.1667 60.6875 63.4334 60.4235 63.7694 60.2422C64.1054 60.0555 64.4814 59.9622 64.8974 59.9622C65.3134 59.9622 65.6894 60.0555 66.0254 60.2422C66.3614 60.4235 66.6254 60.6849 66.8174 61.0262C67.0147 61.3675 67.1134 61.7649 67.1134 62.2182C67.1134 62.6715 67.0121 63.0715 66.8094 63.4182C66.6121 63.7595 66.3427 64.0235 66.0014 64.2102C65.6601 64.3969 65.2814 64.4902 64.8654 64.4902ZM64.8654 63.8502C65.1267 63.8502 65.3721 63.7889 65.6014 63.6662C65.8307 63.5435 66.0147 63.3595 66.1534 63.1142C66.2974 62.8689 66.3694 62.5702 66.3694 62.2182C66.3694 61.8662 66.3001 61.5675 66.1614 61.3222C66.0227 61.0769 65.8414 60.8955 65.6174 60.7782C65.3934 60.6555 65.1507 60.5942 64.8894 60.5942C64.6227 60.5942 64.3774 60.6555 64.1534 60.7782C63.9347 60.8955 63.7587 61.0769 63.6254 61.3222C63.4921 61.5675 63.4254 61.8662 63.4254 62.2182C63.4254 62.5755 63.4894 62.8769 63.6174 63.1222C63.7507 63.3675 63.9267 63.5515 64.1454 63.6742C64.3641 63.7915 64.6041 63.8502 64.8654 63.8502ZM73.4226 59.9542C73.7639 59.9542 74.0679 60.0262 74.3346 60.1702C74.6013 60.3089 74.8119 60.5195 74.9666 60.8022C75.1213 61.0849 75.1986 61.4289 75.1986 61.8342V64.4182H74.4786V61.9382C74.4786 61.5009 74.3693 61.1675 74.1506 60.9382C73.9373 60.7035 73.6466 60.5862 73.2786 60.5862C72.8999 60.5862 72.5986 60.7089 72.3746 60.9542C72.1506 61.1942 72.0386 61.5435 72.0386 62.0022V64.4182H71.3186V61.9382C71.3186 61.5009 71.2093 61.1675 70.9906 60.9382C70.7773 60.7035 70.4866 60.5862 70.1186 60.5862C69.7399 60.5862 69.4386 60.7089 69.2146 60.9542C68.9906 61.1942 68.8786 61.5435 68.8786 62.0022V64.4182H68.1506V60.0342H68.8786V60.6662C69.0226 60.4369 69.2146 60.2609 69.4546 60.1382C69.6999 60.0155 69.9693 59.9542 70.2626 59.9542C70.6306 59.9542 70.9559 60.0369 71.2386 60.2022C71.5213 60.3675 71.7319 60.6102 71.8706 60.9302C71.9933 60.6209 72.1959 60.3809 72.4786 60.2102C72.7613 60.0395 73.0759 59.9542 73.4226 59.9542ZM77.2008 60.8422C77.3448 60.5915 77.5581 60.3835 77.8408 60.2182C78.1288 60.0475 78.4621 59.9622 78.8408 59.9622C79.2301 59.9622 79.5821 60.0555 79.8968 60.2422C80.2168 60.4289 80.4675 60.6929 80.6488 61.0342C80.8301 61.3702 80.9208 61.7622 80.9208 62.2102C80.9208 62.6529 80.8301 63.0475 80.6488 63.3942C80.4675 63.7409 80.2168 64.0102 79.8968 64.2022C79.5821 64.3942 79.2301 64.4902 78.8408 64.4902C78.4675 64.4902 78.1368 64.4075 77.8488 64.2422C77.5661 64.0715 77.3501 63.8609 77.2008 63.6102V66.4982H76.4728V60.0342H77.2008V60.8422ZM80.1768 62.2102C80.1768 61.8795 80.1101 61.5915 79.9768 61.3462C79.8435 61.1009 79.6621 60.9142 79.4328 60.7862C79.2088 60.6582 78.9608 60.5942 78.6888 60.5942C78.4221 60.5942 78.1741 60.6609 77.9448 60.7942C77.7208 60.9222 77.5395 61.1115 77.4008 61.3622C77.2675 61.6075 77.2008 61.8929 77.2008 62.2182C77.2008 62.5489 77.2675 62.8395 77.4008 63.0902C77.5395 63.3355 77.7208 63.5249 77.9448 63.6582C78.1741 63.7862 78.4221 63.8502 78.6888 63.8502C78.9608 63.8502 79.2088 63.7862 79.4328 63.6582C79.6621 63.5249 79.8435 63.3355 79.9768 63.0902C80.1101 62.8395 80.1768 62.5462 80.1768 62.2102ZM82.687 58.4982V64.4182H81.959V58.4982H82.687ZM88.0078 62.0582C88.0078 62.1969 87.9998 62.3435 87.9838 62.4982H84.4798C84.5065 62.9302 84.6531 63.2689 84.9198 63.5142C85.1918 63.7542 85.5198 63.8742 85.9038 63.8742C86.2185 63.8742 86.4798 63.8022 86.6878 63.6582C86.9011 63.5089 87.0505 63.3115 87.1358 63.0662H87.9198C87.8025 63.4875 87.5678 63.8315 87.2158 64.0982C86.8638 64.3595 86.4265 64.4902 85.9038 64.4902C85.4878 64.4902 85.1145 64.3969 84.7838 64.2102C84.4585 64.0235 84.2025 63.7595 84.0158 63.4182C83.8291 63.0715 83.7358 62.6715 83.7358 62.2182C83.7358 61.7649 83.8265 61.3675 84.0078 61.0262C84.1891 60.6849 84.4425 60.4235 84.7678 60.2422C85.0985 60.0555 85.4771 59.9622 85.9038 59.9622C86.3198 59.9622 86.6878 60.0529 87.0078 60.2342C87.3278 60.4155 87.5731 60.6662 87.7438 60.9862C87.9198 61.3009 88.0078 61.6582 88.0078 62.0582ZM87.2558 61.9062C87.2558 61.6289 87.1945 61.3915 87.0718 61.1942C86.9491 60.9915 86.7811 60.8395 86.5678 60.7382C86.3598 60.6315 86.1278 60.5782 85.8718 60.5782C85.5038 60.5782 85.1891 60.6955 84.9278 60.9302C84.6718 61.1649 84.5251 61.4902 84.4878 61.9062H87.2558ZM89.9367 60.6342V63.2182C89.9367 63.4315 89.9821 63.5835 90.0727 63.6742C90.1634 63.7595 90.3207 63.8022 90.5447 63.8022H91.0807V64.4182H90.4247C90.0194 64.4182 89.7154 64.3249 89.5127 64.1382C89.3101 63.9515 89.2087 63.6449 89.2087 63.2182V60.6342H88.6407V60.0342H89.2087V58.9302H89.9367V60.0342H91.0807V60.6342H89.9367ZM96.0428 62.0582C96.0428 62.1969 96.0348 62.3435 96.0188 62.4982H92.5148C92.5415 62.9302 92.6881 63.2689 92.9548 63.5142C93.2268 63.7542 93.5548 63.8742 93.9388 63.8742C94.2535 63.8742 94.5148 63.8022 94.7228 63.6582C94.9361 63.5089 95.0855 63.3115 95.1708 63.0662H95.9548C95.8375 63.4875 95.6028 63.8315 95.2508 64.0982C94.8988 64.3595 94.4615 64.4902 93.9388 64.4902C93.5228 64.4902 93.1495 64.3969 92.8188 64.2102C92.4935 64.0235 92.2375 63.7595 92.0508 63.4182C91.8641 63.0715 91.7708 62.6715 91.7708 62.2182C91.7708 61.7649 91.8615 61.3675 92.0428 61.0262C92.2241 60.6849 92.4775 60.4235 92.8028 60.2422C93.1335 60.0555 93.5121 59.9622 93.9388 59.9622C94.3548 59.9622 94.7228 60.0529 95.0428 60.2342C95.3628 60.4155 95.6081 60.6662 95.7788 60.9862C95.9548 61.3009 96.0428 61.6582 96.0428 62.0582ZM95.2908 61.9062C95.2908 61.6289 95.2295 61.3915 95.1068 61.1942C94.9841 60.9915 94.8161 60.8395 94.6028 60.7382C94.3948 60.6315 94.1628 60.5782 93.9068 60.5782C93.5388 60.5782 93.2241 60.6955 92.9628 60.9302C92.7068 61.1649 92.5601 61.4902 92.5228 61.9062H95.2908ZM96.8117 62.2102C96.8117 61.7622 96.9024 61.3702 97.0837 61.0342C97.2651 60.6929 97.5131 60.4289 97.8277 60.2422C98.1477 60.0555 98.5051 59.9622 98.8997 59.9622C99.2411 59.9622 99.5584 60.0422 99.8517 60.2022C100.145 60.3569 100.369 60.5622 100.524 60.8182V58.4982H101.26V64.4182H100.524V63.5942C100.38 63.8555 100.166 64.0715 99.8837 64.2422C99.6011 64.4075 99.2704 64.4902 98.8917 64.4902C98.5024 64.4902 98.1477 64.3942 97.8277 64.2022C97.5131 64.0102 97.2651 63.7409 97.0837 63.3942C96.9024 63.0475 96.8117 62.6529 96.8117 62.2102ZM100.524 62.2182C100.524 61.8875 100.457 61.5995 100.324 61.3542C100.19 61.1089 100.009 60.9222 99.7797 60.7942C99.5557 60.6609 99.3077 60.5942 99.0357 60.5942C98.7637 60.5942 98.5157 60.6582 98.2917 60.7862C98.0677 60.9142 97.8891 61.1009 97.7557 61.3462C97.6224 61.5915 97.5557 61.8795 97.5557 62.2102C97.5557 62.5462 97.6224 62.8395 97.7557 63.0902C97.8891 63.3355 98.0677 63.5249 98.2917 63.6582C98.5157 63.7862 98.7637 63.8502 99.0357 63.8502C99.3077 63.8502 99.5557 63.7862 99.7797 63.6582C100.009 63.5249 100.19 63.3355 100.324 63.0902C100.457 62.8395 100.524 62.5489 100.524 62.2182ZM104.511 62.2182C104.511 61.7649 104.601 61.3702 104.783 61.0342C104.964 60.6929 105.215 60.4289 105.535 60.2422C105.86 60.0555 106.231 59.9622 106.647 59.9622C107.185 59.9622 107.628 60.0929 107.975 60.3542C108.327 60.6155 108.559 60.9782 108.671 61.4422H107.887C107.812 61.1755 107.665 60.9649 107.447 60.8102C107.233 60.6555 106.967 60.5782 106.647 60.5782C106.231 60.5782 105.895 60.7222 105.639 61.0102C105.383 61.2929 105.255 61.6955 105.255 62.2182C105.255 62.7462 105.383 63.1542 105.639 63.4422C105.895 63.7302 106.231 63.8742 106.647 63.8742C106.967 63.8742 107.233 63.7995 107.447 63.6502C107.66 63.5009 107.807 63.2875 107.887 63.0102H108.671C108.553 63.4582 108.319 63.8182 107.967 64.0902C107.615 64.3569 107.175 64.4902 106.647 64.4902C106.231 64.4902 105.86 64.3969 105.535 64.2102C105.215 64.0235 104.964 63.7595 104.783 63.4182C104.601 63.0769 104.511 62.6769 104.511 62.2182ZM111.898 59.9542C112.229 59.9542 112.527 60.0262 112.794 60.1702C113.061 60.3089 113.269 60.5195 113.418 60.8022C113.573 61.0849 113.65 61.4289 113.65 61.8342V64.4182H112.93V61.9382C112.93 61.5009 112.821 61.1675 112.602 60.9382C112.383 60.7035 112.085 60.5862 111.706 60.5862C111.322 60.5862 111.015 60.7062 110.786 60.9462C110.562 61.1862 110.45 61.5355 110.45 61.9942V64.4182H109.722V58.4982H110.45V60.6582C110.594 60.4342 110.791 60.2609 111.042 60.1382C111.298 60.0155 111.583 59.9542 111.898 59.9542ZM114.647 62.2102C114.647 61.7622 114.738 61.3702 114.919 61.0342C115.101 60.6929 115.349 60.4289 115.663 60.2422C115.983 60.0555 116.338 59.9622 116.727 59.9622C117.111 59.9622 117.445 60.0449 117.727 60.2102C118.01 60.3755 118.221 60.5835 118.359 60.8342V60.0342H119.095V64.4182H118.359V63.6022C118.215 63.8582 117.999 64.0715 117.711 64.2422C117.429 64.4075 117.098 64.4902 116.719 64.4902C116.33 64.4902 115.978 64.3942 115.663 64.2022C115.349 64.0102 115.101 63.7409 114.919 63.3942C114.738 63.0475 114.647 62.6529 114.647 62.2102ZM118.359 62.2182C118.359 61.8875 118.293 61.5995 118.159 61.3542C118.026 61.1089 117.845 60.9222 117.615 60.7942C117.391 60.6609 117.143 60.5942 116.871 60.5942C116.599 60.5942 116.351 60.6582 116.127 60.7862C115.903 60.9142 115.725 61.1009 115.591 61.3462C115.458 61.5915 115.391 61.8795 115.391 62.2102C115.391 62.5462 115.458 62.8395 115.591 63.0902C115.725 63.3355 115.903 63.5249 116.127 63.6582C116.351 63.7862 116.599 63.8502 116.871 63.8502C117.143 63.8502 117.391 63.7862 117.615 63.6582C117.845 63.5249 118.026 63.3355 118.159 63.0902C118.293 62.8395 118.359 62.5489 118.359 62.2182ZM121.134 58.4982V64.4182H120.406V58.4982H121.134ZM123.182 58.4982V64.4182H122.454V58.4982H123.182ZM128.503 62.0582C128.503 62.1969 128.495 62.3435 128.479 62.4982H124.975C125.002 62.9302 125.148 63.2689 125.415 63.5142C125.687 63.7542 126.015 63.8742 126.399 63.8742C126.714 63.8742 126.975 63.8022 127.183 63.6582C127.396 63.5089 127.546 63.3115 127.631 63.0662H128.415C128.298 63.4875 128.063 63.8315 127.711 64.0982C127.359 64.3595 126.922 64.4902 126.399 64.4902C125.983 64.4902 125.61 64.3969 125.279 64.2102C124.954 64.0235 124.698 63.7595 124.511 63.4182C124.324 63.0715 124.231 62.6715 124.231 62.2182C124.231 61.7649 124.322 61.3675 124.503 61.0262C124.684 60.6849 124.938 60.4235 125.263 60.2422C125.594 60.0555 125.972 59.9622 126.399 59.9622C126.815 59.9622 127.183 60.0529 127.503 60.2342C127.823 60.4155 128.068 60.6662 128.239 60.9862C128.415 61.3009 128.503 61.6582 128.503 62.0582ZM127.751 61.9062C127.751 61.6289 127.69 61.3915 127.567 61.1942C127.444 60.9915 127.276 60.8395 127.063 60.7382C126.855 60.6315 126.623 60.5782 126.367 60.5782C125.999 60.5782 125.684 60.6955 125.423 60.9302C125.167 61.1649 125.02 61.4902 124.983 61.9062H127.751ZM131.68 59.9542C132.213 59.9542 132.645 60.1169 132.976 60.4422C133.307 60.7622 133.472 61.2262 133.472 61.8342V64.4182H132.752V61.9382C132.752 61.5009 132.643 61.1675 132.424 60.9382C132.205 60.7035 131.907 60.5862 131.528 60.5862C131.144 60.5862 130.837 60.7062 130.608 60.9462C130.384 61.1862 130.272 61.5355 130.272 61.9942V64.4182H129.544V60.0342H130.272V60.6582C130.416 60.4342 130.611 60.2609 130.856 60.1382C131.107 60.0155 131.381 59.9542 131.68 59.9542ZM136.549 59.9622C136.928 59.9622 137.259 60.0449 137.541 60.2102C137.829 60.3755 138.043 60.5835 138.181 60.8342V60.0342H138.917V64.5142C138.917 64.9142 138.832 65.2689 138.661 65.5782C138.491 65.8929 138.245 66.1382 137.925 66.3142C137.611 66.4902 137.243 66.5782 136.821 66.5782C136.245 66.5782 135.765 66.4422 135.381 66.1702C134.997 65.8982 134.771 65.5275 134.701 65.0582H135.421C135.501 65.3249 135.667 65.5382 135.917 65.6982C136.168 65.8635 136.469 65.9462 136.821 65.9462C137.221 65.9462 137.547 65.8209 137.797 65.5702C138.053 65.3195 138.181 64.9675 138.181 64.5142V63.5942C138.037 63.8502 137.824 64.0635 137.541 64.2342C137.259 64.4049 136.928 64.4902 136.549 64.4902C136.16 64.4902 135.805 64.3942 135.485 64.2022C135.171 64.0102 134.923 63.7409 134.741 63.3942C134.56 63.0475 134.469 62.6529 134.469 62.2102C134.469 61.7622 134.56 61.3702 134.741 61.0342C134.923 60.6929 135.171 60.4289 135.485 60.2422C135.805 60.0555 136.16 59.9622 136.549 59.9622ZM138.181 62.2182C138.181 61.8875 138.115 61.5995 137.981 61.3542C137.848 61.1089 137.667 60.9222 137.437 60.7942C137.213 60.6609 136.965 60.5942 136.693 60.5942C136.421 60.5942 136.173 60.6582 135.949 60.7862C135.725 60.9142 135.547 61.1009 135.413 61.3462C135.28 61.5915 135.213 61.8795 135.213 62.2102C135.213 62.5462 135.28 62.8395 135.413 63.0902C135.547 63.3355 135.725 63.5249 135.949 63.6582C136.173 63.7862 136.421 63.8502 136.693 63.8502C136.965 63.8502 137.213 63.7862 137.437 63.6582C137.667 63.5249 137.848 63.3355 137.981 63.0902C138.115 62.8395 138.181 62.5489 138.181 62.2182ZM144.227 62.0582C144.227 62.1969 144.219 62.3435 144.203 62.4982H140.699C140.726 62.9302 140.873 63.2689 141.139 63.5142C141.411 63.7542 141.739 63.8742 142.123 63.8742C142.438 63.8742 142.699 63.8022 142.907 63.6582C143.121 63.5089 143.27 63.3115 143.355 63.0662H144.139C144.022 63.4875 143.787 63.8315 143.435 64.0982C143.083 64.3595 142.646 64.4902 142.123 64.4902C141.707 64.4902 141.334 64.3969 141.003 64.2102C140.678 64.0235 140.422 63.7595 140.235 63.4182C140.049 63.0715 139.955 62.6715 139.955 62.2182C139.955 61.7649 140.046 61.3675 140.227 61.0262C140.409 60.6849 140.662 60.4235 140.987 60.2422C141.318 60.0555 141.697 59.9622 142.123 59.9622C142.539 59.9622 142.907 60.0529 143.227 60.2342C143.547 60.4155 143.793 60.6662 143.963 60.9862C144.139 61.3009 144.227 61.6582 144.227 62.0582ZM143.475 61.9062C143.475 61.6289 143.414 61.3915 143.291 61.1942C143.169 60.9915 143.001 60.8395 142.787 60.7382C142.579 60.6315 142.347 60.5782 142.091 60.5782C141.723 60.5782 141.409 60.6955 141.147 60.9302C140.891 61.1649 140.745 61.4902 140.707 61.9062H143.475ZM146.82 64.4902C146.484 64.4902 146.183 64.4342 145.916 64.3222C145.65 64.2049 145.439 64.0449 145.284 63.8422C145.13 63.6342 145.044 63.3969 145.028 63.1302H145.78C145.802 63.3489 145.903 63.5275 146.084 63.6662C146.271 63.8049 146.514 63.8742 146.812 63.8742C147.09 63.8742 147.308 63.8129 147.468 63.6902C147.628 63.5675 147.708 63.4129 147.708 63.2262C147.708 63.0342 147.623 62.8929 147.452 62.8022C147.282 62.7062 147.018 62.6129 146.66 62.5222C146.335 62.4369 146.068 62.3515 145.86 62.2662C145.658 62.1755 145.482 62.0449 145.332 61.8742C145.188 61.6982 145.116 61.4689 145.116 61.1862C145.116 60.9622 145.183 60.7569 145.316 60.5702C145.45 60.3835 145.639 60.2369 145.884 60.1302C146.13 60.0182 146.41 59.9622 146.724 59.9622C147.21 59.9622 147.602 60.0849 147.9 60.3302C148.199 60.5755 148.359 60.9115 148.38 61.3382H147.652C147.636 61.1089 147.543 60.9249 147.372 60.7862C147.207 60.6475 146.983 60.5782 146.7 60.5782C146.439 60.5782 146.231 60.6342 146.076 60.7462C145.922 60.8582 145.844 61.0049 145.844 61.1862C145.844 61.3302 145.89 61.4502 145.98 61.5462C146.076 61.6369 146.194 61.7115 146.332 61.7702C146.476 61.8235 146.674 61.8849 146.924 61.9542C147.239 62.0395 147.495 62.1249 147.692 62.2102C147.89 62.2902 148.058 62.4129 148.196 62.5782C148.34 62.7435 148.415 62.9595 148.42 63.2262C148.42 63.4662 148.354 63.6822 148.22 63.8742C148.087 64.0662 147.898 64.2182 147.652 64.3302C147.412 64.4369 147.135 64.4902 146.82 64.4902Z" fill="#192A3E"/>
<path d="M41.3092 61.4461C41.3092 62.1133 40.5822 62.9602 39.2706 62.9602C37.9589 62.9602 37.2319 62.1133 37.2319 61.4461C37.2319 60.779 37.9589 59.9321 39.2706 59.9321C40.5822 59.9321 41.3092 60.779 41.3092 61.4461Z" stroke="#109CF1" stroke-width="2"/>
<defs>
<filter id="filter0_d" x="0" y="0" width="365.693" height="252.206" filterUnits="userSpaceOnUse" color-interpolation-filters="sRGB">
<feFlood flood-opacity="0" result="BackgroundImageFix"/>
<feColorMatrix in="SourceAlpha" type="matrix" values="0 0 0 0 0 0 0 0 0 0 0 0 0 0 0 0 0 0 127 0"/>
<feOffset dy="6"/>
<feGaussianBlur stdDeviation="9"/>
<feColorMatrix type="matrix" values="0 0 0 0 0 0 0 0 0 0 0 0 0 0 0 0 0 0 0.06 0"/>
<feBlend mode="normal" in2="BackgroundImageFix" result="effect1_dropShadow"/>
<feBlend mode="normal" in="SourceGraphic" in2="effect1_dropShadow" result="shape"/>
</filter>
<linearGradient id="paint0_linear" x1="208.295" y1="100.424" x2="208.035" y2="194.689" gradientUnits="userSpaceOnUse">
<stop stop-color="#109CF1"/>
<stop offset="1" stop-color="#109CF1" stop-opacity="0"/>
</linearGradient>
</defs>
</svg>
