<svg width="46" height="46" viewBox="0 0 46 46" fill="none" xmlns="http://www.w3.org/2000/svg">
<g clip-path="url(#clip0)">
<path d="M38.7726 0L46 14.375H37.926L32.3997 0H38.7726ZM28.5503 0L34.0767 14.375H11.9233L17.4497 0H28.5503ZM7.22743 0H13.6003L8.07396 14.375H0L7.22743 0ZM0 17.25H8.04201L17.8649 39.8637C17.9847 40.1422 17.6493 40.3937 17.4656 40.1602L0 17.25ZM11.8354 17.25H34.1646L23.2236 45.8383C23.1438 46.0539 22.8642 46.0539 22.7844 45.8383L11.8354 17.25ZM28.1351 39.8637L37.958 17.25H46L28.5344 40.1512C28.3507 40.3937 28.0153 40.1422 28.1351 39.8637V39.8637Z" fill="#E8DF15"/>
</g>
<defs>
<clipPath id="clip0">
<rect width="46" height="46" fill="white"/>
</clipPath>
</defs>
</svg>
