<svg width="50" height="50" viewBox="0 0 50 50" fill="none" xmlns="http://www.w3.org/2000/svg">
<path d="M35.9375 46.875H6.25C5.81875 46.875 5.46875 46.525 5.46875 46.0938V42.9688C5.46875 42.5375 5.81875 42.1875 6.25 42.1875H35.9375C36.3687 42.1875 36.7188 42.5375 36.7188 42.9688V46.0938C36.7188 46.525 36.3687 46.875 35.9375 46.875Z" fill="#005B8A"/>
<path d="M35.9375 47.2656H6.25C5.60391 47.2656 5.07812 46.7398 5.07812 46.0938V42.9688C5.07812 42.3227 5.60391 41.7969 6.25 41.7969H35.9375C36.5836 41.7969 37.1094 42.3227 37.1094 42.9688V46.0938C37.1094 46.7398 36.5836 47.2656 35.9375 47.2656ZM6.25 42.5781C6.03516 42.5781 5.85938 42.7531 5.85938 42.9688V46.0938C5.85938 46.3094 6.03516 46.4844 6.25 46.4844H35.9375C36.1523 46.4844 36.3281 46.3094 36.3281 46.0938V42.9688C36.3281 42.7531 36.1523 42.5781 35.9375 42.5781H6.25Z" fill="#212A41"/>
<path d="M43.75 46.875H14.0625C13.6313 46.875 13.2812 46.525 13.2812 46.0938V42.9688C13.2812 42.5375 13.6313 42.1875 14.0625 42.1875H43.75C44.1812 42.1875 44.5312 42.5375 44.5312 42.9688V46.0938C44.5312 46.525 44.1812 46.875 43.75 46.875Z" fill="#0079A8"/>
<path d="M43.75 47.2656H14.0625C13.4164 47.2656 12.8906 46.7398 12.8906 46.0938V42.9688C12.8906 42.3227 13.4164 41.7969 14.0625 41.7969H43.75C44.3961 41.7969 44.9219 42.3227 44.9219 42.9688V46.0938C44.9219 46.7398 44.3961 47.2656 43.75 47.2656ZM14.0625 42.5781C13.8477 42.5781 13.6719 42.7531 13.6719 42.9688V46.0938C13.6719 46.3094 13.8477 46.4844 14.0625 46.4844H43.75C43.9648 46.4844 44.1406 46.3094 44.1406 46.0938V42.9688C44.1406 42.7531 43.9648 42.5781 43.75 42.5781H14.0625Z" fill="#212A41"/>
<path d="M32.0312 42.1875H10.1562C9.725 42.1875 9.375 41.8375 9.375 41.4062V38.2812C9.375 37.85 9.725 37.5 10.1562 37.5H32.0312C32.4625 37.5 32.8125 37.85 32.8125 38.2812V41.4062C32.8125 41.8375 32.4625 42.1875 32.0312 42.1875Z" fill="#005B8A"/>
<path d="M32.0312 42.5781H10.1562C9.51016 42.5781 8.98438 42.0523 8.98438 41.4062V38.2812C8.98438 37.6352 9.51016 37.1094 10.1562 37.1094H32.0312C32.6773 37.1094 33.2031 37.6352 33.2031 38.2812V41.4062C33.2031 42.0523 32.6773 42.5781 32.0312 42.5781ZM10.1562 37.8906C9.94141 37.8906 9.76562 38.0656 9.76562 38.2812V41.4062C9.76562 41.6219 9.94141 41.7969 10.1562 41.7969H32.0312C32.2461 41.7969 32.4219 41.6219 32.4219 41.4062V38.2812C32.4219 38.0656 32.2461 37.8906 32.0312 37.8906H10.1562Z" fill="#212A41"/>
<path d="M39.8438 42.1875H17.9688C17.5375 42.1875 17.1875 41.8375 17.1875 41.4062V38.2812C17.1875 37.85 17.5375 37.5 17.9688 37.5H39.8438C40.275 37.5 40.625 37.85 40.625 38.2812V41.4062C40.625 41.8375 40.275 42.1875 39.8438 42.1875Z" fill="#0079A8"/>
<path d="M39.8438 42.5781H17.9688C17.3227 42.5781 16.7969 42.0523 16.7969 41.4062V38.2812C16.7969 37.6352 17.3227 37.1094 17.9688 37.1094H39.8438C40.4898 37.1094 41.0156 37.6352 41.0156 38.2812V41.4062C41.0156 42.0523 40.4898 42.5781 39.8438 42.5781ZM17.9688 37.8906C17.7539 37.8906 17.5781 38.0656 17.5781 38.2812V41.4062C17.5781 41.6219 17.7539 41.7969 17.9688 41.7969H39.8438C40.0586 41.7969 40.2344 41.6219 40.2344 41.4062V38.2812C40.2344 38.0656 40.0586 37.8906 39.8438 37.8906H17.9688Z" fill="#212A41"/>
<path d="M28.125 37.5H14.0625C13.6313 37.5 13.2812 37.15 13.2812 36.7188V33.5938C13.2812 33.1625 13.6313 32.8125 14.0625 32.8125H28.125C28.5562 32.8125 28.9062 33.1625 28.9062 33.5938V36.7188C28.9062 37.15 28.5562 37.5 28.125 37.5Z" fill="#005B8A"/>
<path d="M28.125 37.8906H14.0625C13.4164 37.8906 12.8906 37.3648 12.8906 36.7188V33.5938C12.8906 32.9477 13.4164 32.4219 14.0625 32.4219H28.125C28.7711 32.4219 29.2969 32.9477 29.2969 33.5938V36.7188C29.2969 37.3648 28.7711 37.8906 28.125 37.8906ZM14.0625 33.2031C13.8477 33.2031 13.6719 33.3781 13.6719 33.5938V36.7188C13.6719 36.9344 13.8477 37.1094 14.0625 37.1094H28.125C28.3398 37.1094 28.5156 36.9344 28.5156 36.7188V33.5938C28.5156 33.3781 28.3398 33.2031 28.125 33.2031H14.0625Z" fill="#212A41"/>
<path d="M35.9375 37.5H21.875C21.4438 37.5 21.0938 37.15 21.0938 36.7188V33.5938C21.0938 33.1625 21.4438 32.8125 21.875 32.8125H35.9375C36.3687 32.8125 36.7188 33.1625 36.7188 33.5938V36.7188C36.7188 37.15 36.3687 37.5 35.9375 37.5Z" fill="#0079A8"/>
<path d="M35.9375 37.8906H21.875C21.2289 37.8906 20.7031 37.3648 20.7031 36.7188V33.5938C20.7031 32.9477 21.2289 32.4219 21.875 32.4219H35.9375C36.5836 32.4219 37.1094 32.9477 37.1094 33.5938V36.7188C37.1094 37.3648 36.5836 37.8906 35.9375 37.8906ZM21.875 33.2031C21.6602 33.2031 21.4844 33.3781 21.4844 33.5938V36.7188C21.4844 36.9344 21.6602 37.1094 21.875 37.1094H35.9375C36.1523 37.1094 36.3281 36.9344 36.3281 36.7188V33.5938C36.3281 33.3781 36.1523 33.2031 35.9375 33.2031H21.875Z" fill="#212A41"/>
<path d="M19.5312 3.125H22.6562V32.8125H19.5312V3.125Z" fill="#E0E0E0"/>
<path d="M22.6562 33.2031H19.5312C19.3156 33.2031 19.1406 33.0281 19.1406 32.8125V3.125C19.1406 2.90938 19.3156 2.73438 19.5312 2.73438H22.6562C22.8719 2.73438 23.0469 2.90938 23.0469 3.125V32.8125C23.0469 33.0281 22.8719 33.2031 22.6562 33.2031ZM19.9219 32.4219H22.2656V3.51562H19.9219V32.4219Z" fill="#212A41"/>
<path d="M40.625 17.1875H21.875V4.6875H40.625L35.9375 10.9375L40.625 17.1875Z" fill="#F9AC2F"/>
<path d="M40.625 17.5781H21.875C21.6594 17.5781 21.4844 17.4031 21.4844 17.1875V4.6875C21.4844 4.47188 21.6594 4.29688 21.875 4.29688H40.625C40.7727 4.29688 40.9078 4.38047 40.9742 4.5125C41.0406 4.64453 41.0266 4.80313 40.9375 4.92188L36.4258 10.9375L40.9375 16.9531C41.0258 17.0711 41.0406 17.2297 40.9742 17.3617C40.9078 17.4937 40.7727 17.5781 40.625 17.5781ZM22.2656 16.7969H39.8438L35.625 11.1719C35.5211 11.0328 35.5211 10.8422 35.625 10.7031L39.8438 5.07812H22.2656V16.7969Z" fill="#212A41"/>
<path d="M37.5 16.0156C37.382 16.0156 37.2641 15.9617 37.1875 15.8593L34.375 12.1093C33.857 11.4195 33.857 10.4554 34.3758 9.76556L37.1875 6.01556C37.318 5.8429 37.5625 5.80853 37.7344 5.93744C37.907 6.06712 37.9422 6.31165 37.8133 6.48431L35.0008 10.2343C34.6899 10.6484 34.6899 11.2273 35 11.6406L37.8133 15.3906C37.9422 15.5632 37.907 15.8078 37.7344 15.9374C37.6641 15.9898 37.5813 16.0156 37.5 16.0156Z" fill="#DB8E11"/>
<path d="M7.8125 31.25L6.64062 27.7344L3.125 26.5625L6.64062 25.3906L7.8125 21.875L8.98438 25.3906L12.5 26.5625L8.98438 27.7344L7.8125 31.25Z" fill="#B7C0D7"/>
<path d="M7.8125 31.6406C7.64453 31.6406 7.49531 31.5328 7.44141 31.3734L6.33125 28.0429L3.00078 26.9328C2.84219 26.8796 2.73438 26.7304 2.73438 26.5625C2.73438 26.3945 2.84219 26.2453 3.00156 26.1921L6.33203 25.082L7.44219 21.7515C7.54922 21.4328 8.07656 21.4328 8.18359 21.7515L9.29375 25.082L12.6242 26.1921C12.7828 26.2453 12.8906 26.3945 12.8906 26.5625C12.8906 26.7304 12.7828 26.8796 12.6234 26.9328L9.29297 28.0429L8.18281 31.3734C8.12969 31.5328 7.98047 31.6406 7.8125 31.6406ZM4.36016 26.5625L6.76406 27.364C6.88047 27.4023 6.97266 27.4945 7.01094 27.6109L7.8125 30.0148L8.61328 27.6109C8.65234 27.4945 8.74375 27.4023 8.86016 27.364L11.2648 26.5625L8.86094 25.7609C8.74453 25.7226 8.65234 25.6304 8.61406 25.514L7.8125 23.1101L7.01172 25.514C6.97266 25.6304 6.88125 25.7226 6.76484 25.7609L4.36016 26.5625Z" fill="#212A41"/>
<path d="M42.1875 31.25L41.0156 27.7344L37.5 26.5625L41.0156 25.3906L42.1875 21.875L43.3594 25.3906L46.875 26.5625L43.3594 27.7344L42.1875 31.25Z" fill="#B7C0D7"/>
<path d="M42.1875 31.6406C42.0195 31.6406 41.8703 31.5328 41.8164 31.3734L40.7063 28.0429L37.3758 26.9328C37.2172 26.8796 37.1094 26.7304 37.1094 26.5625C37.1094 26.3945 37.2172 26.2453 37.3766 26.1921L40.707 25.082L41.8172 21.7515C41.9242 21.4328 42.4516 21.4328 42.5586 21.7515L43.6687 25.082L46.9992 26.1921C47.1578 26.2453 47.2656 26.3945 47.2656 26.5625C47.2656 26.7304 47.1578 26.8796 46.9984 26.9328L43.668 28.0429L42.5578 31.3734C42.5047 31.5328 42.3555 31.6406 42.1875 31.6406ZM38.7352 26.5625L41.1391 27.364C41.2555 27.4023 41.3477 27.4945 41.3859 27.6109L42.1875 30.0148L42.9883 27.6109C43.0273 27.4945 43.1187 27.4023 43.2352 27.364L45.6398 26.5625L43.2359 25.7609C43.1195 25.7226 43.0273 25.6304 42.9891 25.514L42.1875 23.1101L41.3867 25.514C41.3477 25.6304 41.2563 25.7226 41.1398 25.7609L38.7352 26.5625Z" fill="#212A41"/>
<path d="M23.4375 16.0156C23.2219 16.0156 23.0469 15.8406 23.0469 15.625V6.25C23.0469 6.03438 23.2219 5.85938 23.4375 5.85938C23.6531 5.85938 23.8281 6.03438 23.8281 6.25V15.625C23.8281 15.8406 23.6531 16.0156 23.4375 16.0156Z" fill="#FFCA4D"/>
</svg>
