<svg width="130" height="116" viewBox="0 0 130 116" fill="none" xmlns="http://www.w3.org/2000/svg">
<g clip-path="url(#clip0)">
<path d="M123.275 2.19729C122.011 -0.634739 118.4 -0.748021 116.888 1.92542C109.891 14.1371 97.3654 21.7496 83.0564 21.7496H65.0008C41.0772 21.7496 21.6675 41.234 21.6675 65.2496C21.6675 66.8356 21.8481 68.3535 22.006 69.8942C36.4053 59.5403 57.1918 50.7496 86.6675 50.7496C88.6536 50.7496 90.2786 52.3809 90.2786 54.3746C90.2786 56.3684 88.6536 57.9996 86.6675 57.9996C29.9279 57.9996 5.86888 92.9129 0.542494 106.031C-0.947089 109.724 0.813327 113.938 4.49215 115.456C8.19354 116.997 12.3915 115.207 13.9262 111.536C14.2647 110.721 18.6432 100.684 30.1536 91.0098C37.4661 100.956 51.3689 110.449 69.6276 108.5C105.062 105.918 130.001 74.0176 130.001 34.9582C130.001 23.5848 127.563 11.8035 123.275 2.19729Z" fill="#3EBD93"/>
</g>
<defs>
<clipPath id="clip0">
<rect width="130" height="116" fill="white"/>
</clipPath>
</defs>
</svg>
