<svg width="40" height="40" viewBox="0 0 40 40" fill="none" xmlns="http://www.w3.org/2000/svg">
<path d="M20 23.125C21.3597 23.125 22.689 22.7218 23.8195 21.9663C24.9501 21.2109 25.8313 20.1372 26.3517 18.8809C26.872 17.6247 27.0082 16.2424 26.7429 14.9088C26.4776 13.5751 25.8228 12.3501 24.8614 11.3886C23.8999 10.4272 22.6749 9.77238 21.3412 9.5071C20.0076 9.24183 18.6253 9.37798 17.369 9.89833C16.1128 10.4187 15.0391 11.2999 14.2836 12.4305C13.5282 13.561 13.125 14.8903 13.125 16.25C13.1272 18.0727 13.8522 19.8201 15.141 21.109C16.4299 22.3978 18.1773 23.1228 20 23.125ZM20 10.625C21.162 10.6269 22.2949 10.9883 23.2433 11.6597C24.1917 12.3312 24.909 13.2796 25.2969 14.375H14.7031C15.091 13.2796 15.8083 12.3312 16.7567 11.6597C17.7051 10.9883 18.838 10.6269 20 10.625ZM20 16.875C20.1658 16.875 20.3247 16.8092 20.4419 16.6919C20.5591 16.5747 20.625 16.4158 20.625 16.25V15.625H23.0625C22.919 16.3314 22.5358 16.9665 21.9777 17.4227C21.4195 17.8789 20.7208 18.1281 20 18.1281C19.2791 18.1281 18.5805 17.8789 18.0223 17.4227C17.4642 16.9665 17.0809 16.3314 16.9375 15.625H19.375V16.25C19.375 16.4158 19.4408 16.5747 19.5581 16.6919C19.6753 16.8092 19.8342 16.875 20 16.875ZM14.4119 15.625H15.675C15.8244 16.6655 16.344 17.6173 17.1384 18.3058C17.9328 18.9942 18.9488 19.3732 20 19.3732C21.0512 19.3732 22.0672 18.9942 22.8616 18.3058C23.656 17.6173 24.1756 16.6655 24.325 15.625H25.5881C25.6788 16.4127 25.6018 17.2108 25.3624 17.9667C25.1229 18.7226 24.7263 19.4194 24.1987 20.0113C23.671 20.6031 23.0241 21.0768 22.3005 21.4011C21.5769 21.7254 20.7929 21.893 20 21.893C19.207 21.893 18.4231 21.7254 17.6995 21.4011C16.9759 21.0768 16.329 20.6031 15.8013 20.0113C15.2737 19.4194 14.8771 18.7226 14.6376 17.9667C14.3982 17.2108 14.3212 16.4127 14.4119 15.625Z" fill="#C6F7E2"/>
<path d="M11.875 26.875H13.3963L15.0894 29.6969C15.1449 29.7893 15.2234 29.8658 15.3173 29.9189C15.4111 29.9721 15.5172 30 15.625 30C15.7333 29.9998 15.8396 29.9714 15.9336 29.9177C16.0276 29.864 16.106 29.7869 16.1613 29.6937L17.8356 26.875H28.125V25.625H11.875V26.875ZM15.625 28.1556L14.8538 26.875H16.3819L15.625 28.1556Z" fill="#C6F7E2"/>
<path d="M29.907 7.11875L28.0945 1.6775C28.0563 1.56503 27.9868 1.46578 27.8942 1.39137C27.8016 1.31696 27.6898 1.27048 27.5717 1.25736C27.4537 1.24425 27.3343 1.26504 27.2277 1.31731C27.121 1.36958 27.0314 1.45116 26.9695 1.5525L25.1463 4.58312C21.8047 3.47687 18.1955 3.47687 14.8538 4.58312L13.0357 1.55312C12.9738 1.45179 12.8842 1.37021 12.7775 1.31794C12.6709 1.26567 12.5515 1.24487 12.4335 1.25799C12.3154 1.2711 12.2036 1.31759 12.111 1.392C12.0184 1.46641 11.9489 1.56566 11.9107 1.67812L10.0982 7.11937C8.13252 8.63064 6.53873 10.5717 5.43887 12.7939C4.33902 15.0161 3.76227 17.4605 3.7528 19.94C3.74333 22.4195 4.30139 24.8682 5.38423 27.0988C6.46708 29.3293 8.046 31.2825 10.0001 32.8087V36.25C10.0001 36.913 10.2635 37.5489 10.7323 38.0178C11.2012 38.4866 11.8371 38.75 12.5001 38.75C13.1631 38.75 13.799 38.4866 14.2679 38.0178C14.7367 37.5489 15.0001 36.913 15.0001 36.25V35.4619C18.2513 36.5081 21.7489 36.5081 25.0001 35.4619V36.25C25.0001 36.913 25.2635 37.5489 25.7323 38.0178C26.2012 38.4866 26.8371 38.75 27.5001 38.75C28.1631 38.75 28.799 38.4866 29.2679 38.0178C29.7367 37.5489 30.0001 36.913 30.0001 36.25V32.8087C31.9541 31.2829 33.5331 29.3301 34.6162 27.0999C35.6993 24.8698 36.2577 22.4214 36.2487 19.9422C36.2397 17.463 35.6635 15.0187 34.5643 12.7964C33.4651 10.5742 31.872 8.63292 29.907 7.12125V7.11875ZM29.0001 32C28.9225 32.0582 28.8595 32.1337 28.8161 32.2205C28.7727 32.3073 28.7501 32.403 28.7501 32.5V36.25C28.7501 36.5815 28.6184 36.8995 28.384 37.1339C28.1496 37.3683 27.8316 37.5 27.5001 37.5C27.1686 37.5 26.8506 37.3683 26.6162 37.1339C26.3818 36.8995 26.2501 36.5815 26.2501 36.25V34.5775C26.2501 34.476 26.2254 34.376 26.1781 34.2862C26.1308 34.1964 26.0624 34.1195 25.9787 34.0621C25.895 34.0047 25.7986 33.9685 25.6978 33.9567C25.5969 33.9449 25.4948 33.9578 25.4001 33.9944C21.9238 35.3288 18.0764 35.3288 14.6001 33.9944C14.5054 33.9578 14.4032 33.9449 14.3024 33.9567C14.2016 33.9685 14.1052 34.0047 14.0215 34.0621C13.9378 34.1195 13.8694 34.1964 13.8221 34.2862C13.7748 34.376 13.7501 34.476 13.7501 34.5775V36.25C13.7501 36.5815 13.6184 36.8995 13.384 37.1339C13.1496 37.3683 12.8316 37.5 12.5001 37.5C12.1686 37.5 11.8506 37.3683 11.6162 37.1339C11.3818 36.8995 11.2501 36.5815 11.2501 36.25V32.5C11.2501 32.403 11.2275 32.3073 11.1841 32.2205C11.1407 32.1337 11.0777 32.0582 11.0001 32C9.13716 30.6028 7.62511 28.791 6.58369 26.7082C5.54228 24.6254 5.0001 22.3287 5.0001 20C5.0001 17.6713 5.54228 15.3746 6.58369 13.2918C7.62511 11.209 9.13716 9.3972 11.0001 8C11.1013 7.9237 11.177 7.81841 11.217 7.69812L12.6626 3.3625L14.0438 5.66437C14.1187 5.78865 14.2345 5.88299 14.3714 5.93123C14.5082 5.97947 14.6576 5.97859 14.7938 5.92875C18.1532 4.69688 21.8407 4.69688 25.2001 5.92875C25.3364 5.97859 25.4857 5.97947 25.6226 5.93123C25.7594 5.88299 25.8752 5.78865 25.9501 5.66437L27.3313 3.3625L28.777 7.69812C28.817 7.81841 28.8926 7.9237 28.9938 8C30.8568 9.3972 32.3688 11.209 33.4103 13.2918C34.4517 15.3746 34.9939 17.6713 34.9939 20C34.9939 22.3287 34.4517 24.6254 33.4103 26.7082C32.3688 28.791 30.8568 30.6028 28.9938 32H29.0001Z" fill="#C6F7E2"/>
</svg>
