<svg width="200" height="200" viewBox="0 0 200 200" fill="none" xmlns="http://www.w3.org/2000/svg">
<path d="M118.75 46.875V81.25H109.375L106.25 75H93.75L90.625 81.25H81.25V46.875H65.625L62.5 81.25L65.625 109.375L62.5 137.5L65.625 150L75 153.125H125L137.5 146.875L134.375 134.375L140.625 103.906L134.375 81.25V46.875H118.75Z" fill="#AAE1F9"/>
<path d="M121.875 137.5H121.375L103.125 134.375L84.8749 137.5C84.2196 137.603 83.5485 137.496 82.9586 137.192C82.3687 136.889 81.8906 136.406 81.5936 135.812L78.4686 129.562C78.2471 129.194 78.1038 128.784 78.0479 128.358C77.9919 127.932 78.0244 127.499 78.1434 127.086C78.2623 126.673 78.4652 126.289 78.7392 125.958C79.0133 125.627 79.3527 125.356 79.7362 125.163C80.1197 124.969 80.539 124.856 80.9681 124.831C81.3971 124.807 81.8266 124.871 82.2297 125.02C82.6327 125.169 83.0008 125.4 83.3107 125.697C83.6207 125.995 83.8659 126.353 84.0311 126.75L86.1249 130.937L102.625 128.125H103.625L122.375 131.25C123.204 131.316 123.972 131.709 124.511 132.342C125.051 132.975 125.316 133.796 125.25 134.625C125.184 135.454 124.791 136.222 124.158 136.761C123.525 137.301 122.704 137.566 121.875 137.5Z" fill="#57B7EB"/>
<path d="M128.125 46.875H118.75V81.25C121.236 81.25 123.621 80.2623 125.379 78.5041C127.137 76.746 128.125 74.3614 128.125 71.875V46.875Z" fill="#57B7EB"/>
<path d="M134.375 143.75H86.625C83.5292 143.74 80.5249 142.699 78.0861 140.792C75.6473 138.885 73.9128 136.221 73.1563 133.219L72.4688 130.563C72.0855 128.957 71.9798 127.298 72.1563 125.656L75 101.531C75.0976 100.492 75.0976 99.4456 75 98.4063L72.1875 73.2188C72.0937 72.2836 72.0937 71.3414 72.1875 70.4063L74.1563 46.875H65.625L62.5 81.25L65.625 109.375L62.5 137.5L65.625 150L75 153.125H125L137.5 146.875L136.469 142.719L134.375 143.75Z" fill="#57B7EB"/>
<path d="M99.9999 9.375C82.076 9.375 64.5546 14.6901 49.6514 24.6481C34.7482 34.6061 23.1325 48.7598 16.2733 65.3193C9.41414 81.8788 7.61947 100.101 11.1163 117.68C14.613 135.26 23.2442 151.407 35.9184 164.082C48.5925 176.756 64.7403 185.387 82.3198 188.884C99.8994 192.38 118.121 190.586 134.681 183.727C151.24 176.867 165.394 165.252 175.352 150.349C185.31 135.445 190.625 117.924 190.625 100C190.625 75.9647 181.077 52.9139 164.081 35.9184C147.086 18.923 124.035 9.375 99.9999 9.375ZM99.9999 21.875C113.184 21.8751 126.154 25.2119 137.701 31.5744C149.249 37.937 158.998 47.1185 166.042 58.2637C173.085 69.4089 177.193 82.1554 177.984 95.3159C178.774 108.477 176.221 121.623 170.562 133.531L35.6874 55.6562C42.8699 45.238 52.4757 36.7203 63.6784 30.8359C74.8812 24.9514 87.3457 21.8763 99.9999 21.875ZM99.9999 178.125C86.8156 178.125 73.8458 174.788 62.2984 168.426C50.751 162.063 41.0016 152.881 33.9583 141.736C26.9149 130.591 22.8067 117.845 22.0162 104.684C21.2257 91.5235 23.7787 78.3769 29.4374 66.4687L164.312 144.344C157.13 154.762 147.524 163.28 136.321 169.164C125.119 175.049 112.654 178.124 99.9999 178.125Z" fill="#F8664F"/>
<path d="M146.875 162.5C132.903 172.979 115.823 178.473 98.3617 178.107C80.9008 177.74 64.0661 171.534 50.5461 160.478C37.026 149.422 27.6003 134.155 23.7741 117.115C19.9478 100.074 21.9418 82.2431 29.4375 66.4686L30.4375 67.0624C28.9672 59.7246 28.1929 52.2644 28.125 44.7811C13.8894 63.3496 7.3871 86.7042 9.97869 109.958C12.5703 133.211 24.055 154.561 42.0293 169.54C60.0037 184.518 83.0747 191.965 106.414 190.321C129.754 188.676 151.553 178.069 167.25 160.719C160.522 161.897 153.705 162.493 146.875 162.5Z" fill="#CC5144"/>
</svg>
