<svg width="40" height="40" viewBox="0 0 40 40" fill="none" xmlns="http://www.w3.org/2000/svg">
<path d="M13.1419 9.17123C12.645 9.05873 12.4544 8.98373 12.4544 8.74936C12.4544 8.55717 12.6322 8.40248 12.9278 8.40248C13.2654 8.41386 13.5892 8.53946 13.8462 8.75873L14.2072 8.26186C13.8566 7.96218 13.4072 7.80347 12.9462 7.81654C12.2431 7.81654 11.7556 8.22279 11.7556 8.81936C11.7556 9.44436 12.2384 9.63498 12.9181 9.78811C13.4103 9.90061 13.5978 9.97092 13.5978 10.2006C13.5978 10.4022 13.42 10.5615 13.0728 10.5615C12.6797 10.5568 12.3022 10.4065 12.0134 10.1397L11.615 10.6131C12.006 10.9669 12.5174 11.1581 13.0447 11.1475C13.8322 11.1475 14.2947 10.7397 14.2947 10.1256C14.2953 9.53123 13.8359 9.32623 13.1419 9.17123Z" fill="#C6F7E2"/>
<path d="M16.611 8.44496C16.7546 8.4479 16.8958 8.48164 17.0252 8.54392C17.1546 8.60619 17.2691 8.69553 17.361 8.8059L17.8626 8.3559C17.63 8.10912 17.3294 7.93685 16.9989 7.86086C16.6684 7.78488 16.3228 7.80859 16.0057 7.92899C15.6887 8.0494 15.4145 8.2611 15.2177 8.53733C15.021 8.81356 14.9105 9.14192 14.9004 9.4809C14.9125 9.92695 15.098 10.3507 15.4174 10.6623C15.7368 10.9739 16.1651 11.1487 16.6113 11.1496C16.8452 11.1483 17.0764 11.0998 17.2911 11.0072C17.5059 10.9146 17.6998 10.7797 17.8613 10.6106L17.3598 10.1606C17.2679 10.271 17.1534 10.3603 17.024 10.4226C16.8946 10.4848 16.7533 10.5186 16.6098 10.5215C16.3414 10.5111 16.0874 10.3972 15.9012 10.2036C15.715 10.01 15.611 9.75184 15.611 9.48324C15.611 9.21464 15.715 8.95647 15.9012 8.7629C16.0874 8.56932 16.3414 8.45537 16.6098 8.44496H16.611Z" fill="#C6F7E2"/>
<path d="M20.0378 7.8169C19.7101 7.82581 19.3923 7.93116 19.1241 8.11978C18.856 8.30839 18.6494 8.57189 18.5303 8.87731C18.4111 9.18273 18.3847 9.51651 18.4542 9.83688C18.5238 10.1573 18.6863 10.45 18.9214 10.6785C19.1565 10.907 19.4538 11.0611 19.776 11.1215C20.0982 11.1819 20.4311 11.1459 20.733 11.0181C21.0349 10.8903 21.2924 10.6763 21.4733 10.4029C21.6542 10.1295 21.7504 9.8088 21.75 9.48096C21.7377 9.03517 21.5519 8.6118 21.2321 8.30099C20.9123 7.99017 20.4838 7.81648 20.0378 7.8169ZM20.0378 10.5213C19.8311 10.5284 19.6269 10.4736 19.4515 10.3639C19.2761 10.2543 19.1375 10.0947 19.0533 9.90576C18.9692 9.7168 18.9433 9.50702 18.9791 9.30328C19.015 9.09955 19.1108 8.91115 19.2543 8.76222C19.3979 8.61329 19.5827 8.51062 19.7849 8.46736C19.9872 8.42409 20.1978 8.44221 20.3897 8.51938C20.5817 8.59656 20.7462 8.72927 20.8622 8.90053C20.9782 9.07179 21.0405 9.27379 21.0409 9.48064C21.0421 9.75056 20.938 10.0103 20.7507 10.2046C20.5633 10.399 20.3076 10.5126 20.0378 10.5213Z" fill="#C6F7E2"/>
<path d="M25.1562 8.96059C25.1528 8.80782 25.1181 8.65736 25.0542 8.51854C24.9903 8.37972 24.8986 8.2555 24.7847 8.15355C24.6709 8.05161 24.5374 7.97412 24.3924 7.92587C24.2474 7.87763 24.094 7.85967 23.9418 7.87309H22.4937V11.0937H23.1827V10.0481H23.6937L24.4296 11.0937H25.2171L24.4252 9.96872C24.6388 9.9009 24.8251 9.76641 24.9566 9.58497C25.0882 9.40353 25.1581 9.1847 25.1562 8.96059ZM23.8671 9.41528H23.1827V8.5059H23.8671C24.2093 8.5059 24.4437 8.68403 24.4437 8.96059C24.4437 9.23715 24.2093 9.41528 23.8671 9.41528Z" fill="#C6F7E2"/>
<path d="M25.9062 11.0932H28.3859V10.4697H26.6003V9.76223H28.2172V9.13848H26.6003V8.49661H28.3859V7.87317H25.9062V11.0932Z" fill="#C6F7E2"/>
<path d="M37.9688 4.25H2.03125C1.88621 4.25 1.74711 4.30762 1.64455 4.41018C1.54199 4.51273 1.48438 4.65183 1.48438 4.79688V35.2056C1.48504 35.3502 1.54294 35.4887 1.64543 35.5907C1.74792 35.6927 1.88664 35.75 2.03125 35.75H37.9688C38.1138 35.75 38.2529 35.6924 38.3554 35.5898C38.458 35.4873 38.5156 35.3482 38.5156 35.2031V4.79562C38.5153 4.6508 38.4575 4.51202 38.355 4.40973C38.2525 4.30744 38.1136 4.25 37.9688 4.25ZM2.57812 5.34375H37.4219V13.625H2.57812V5.34375ZM2.57812 34.6587V14.7188H37.4219V34.6562L2.57812 34.6587Z" fill="#C6F7E2"/>
<path d="M36.0938 15.5H3.90625C3.76121 15.5 3.62211 15.5576 3.51955 15.6602C3.41699 15.7627 3.35938 15.9018 3.35938 16.0469V33.3306C3.35938 33.4757 3.41699 33.6148 3.51955 33.7173C3.62211 33.8199 3.76121 33.8775 3.90625 33.8775H36.0938C36.2388 33.8775 36.3779 33.8199 36.4804 33.7173C36.583 33.6148 36.6406 33.4757 36.6406 33.3306V16.0456C36.6403 15.9008 36.5825 15.762 36.48 15.6597C36.3775 15.5574 36.2386 15.5 36.0938 15.5ZM20.7812 24.1406H16.9531V20.9134H20.7812V24.1406ZM21.875 20.9134H25.7031V24.1406H21.875V20.9134ZM20.7812 25.2344V28.4616H16.9531V25.2344H20.7812ZM21.875 25.2344H25.7031V28.4616H21.875V25.2344ZM26.7969 25.2344H30.625V28.4616H26.7969V25.2344ZM31.7188 25.2344H35.5469V28.4616H31.7188V25.2344ZM31.7188 24.1406V20.9134H35.5469V24.1406H31.7188ZM30.625 24.1406H26.7969V20.9134H30.625V24.1406ZM26.7969 19.8197V16.5937H30.625V19.8197H26.7969ZM25.7031 19.8197H21.875V16.5937H25.7031V19.8197ZM20.7812 19.8197H16.9531V16.5937H20.7812V19.8197ZM15.8594 19.8197H7.57812V16.5937H15.8594V19.8197ZM15.8594 20.9134V24.1406H7.57812V20.9134H15.8594ZM6.48438 24.1406H4.45312V20.9134H6.48438V24.1406ZM4.45312 25.2344H6.48438V28.4616H4.45312V25.2344ZM7.57812 25.2344H15.8594V28.4616H7.57812V25.2344ZM15.8594 29.5553V32.7812H7.57812V29.5553H15.8594ZM16.9531 29.5553H20.7812V32.7812H16.9531V29.5553ZM21.875 29.5553H25.7031V32.7812H21.875V29.5553ZM26.7969 29.5553H30.625V32.7812H26.7969V29.5553ZM31.7188 29.5553H35.5469V32.7812H31.7188V29.5553ZM35.5469 19.8197H31.7188V16.5937H35.5469V19.8197ZM6.48438 16.5937V19.8197H4.45312V16.5937H6.48438ZM4.45312 29.5562H6.48438V32.7812H4.45312V29.5562Z" fill="#C6F7E2"/>
</svg>
