<svg width="46" height="47" viewBox="0 0 46 47" fill="none" xmlns="http://www.w3.org/2000/svg">
<g clip-path="url(#clip0)">
<path d="M36.1429 15.1147V12.2397C36.1429 5.89857 30.247 0.739746 23 0.739746C15.7529 0.739746 9.85714 5.89857 9.85714 12.2397V15.1147H0V39.5522C0 43.5218 3.67764 46.7397 8.21429 46.7397H37.7857C42.3224 46.7397 46 43.5218 46 39.5522V15.1147H36.1429ZM16.4286 12.2397C16.4286 9.06916 19.3765 6.48975 23 6.48975C26.6235 6.48975 29.5714 9.06916 29.5714 12.2397V15.1147H16.4286V12.2397ZM32.8571 23.021C31.4961 23.021 30.3929 22.0556 30.3929 20.8647C30.3929 19.6739 31.4961 18.7085 32.8571 18.7085C34.2181 18.7085 35.3214 19.6739 35.3214 20.8647C35.3214 22.0556 34.2181 23.021 32.8571 23.021ZM13.1429 23.021C11.7819 23.021 10.6786 22.0556 10.6786 20.8647C10.6786 19.6739 11.7819 18.7085 13.1429 18.7085C14.5039 18.7085 15.6071 19.6739 15.6071 20.8647C15.6071 22.0556 14.5039 23.021 13.1429 23.021Z" fill="#A3DCE3"/>
</g>
<defs>
<clipPath id="clip0">
<rect width="46" height="46" fill="white" transform="translate(0 0.739746)"/>
</clipPath>
</defs>
</svg>
